<?xml version="1.0" standalone="no"?>
<!DOCTYPE svg PUBLIC "-//W3C//DTD SVG 20010904//EN"
 "http://www.w3.org/TR/2001/REC-SVG-20010904/DTD/svg10.dtd">
<svg version="1.0" xmlns="http://www.w3.org/2000/svg"
 width="512.000000pt" height="512.000000pt" viewBox="0 0 512.000000 512.000000"
 preserveAspectRatio="xMidYMid meet">
<metadata>
Created by potrace 1.11, written by Peter Selinger 2001-2013
</metadata>
<g transform="translate(0.000000,512.000000) scale(0.100000,-0.100000)"
fill="#000000" stroke="none">
<path d="M2425 4371 c-360 -90 -658 -218 -931 -401 -110 -74 -288 -217 -356
-287 l-57 -58 -17 -140 c-22 -187 -22 -545 0 -716 16 -125 44 -278 69 -374
l13 -50 1415 -3 1416 -2 21 92 c27 120 48 247 63 378 15 139 15 501 -1 670
l-12 135 -57 58 c-69 72 -229 204 -336 278 -221 153 -480 277 -755 362 -126
39 -322 88 -348 86 -10 -1 -66 -13 -127 -28z m350 -160 c249 -61 459 -230 575
-462 66 -130 91 -243 91 -404 0 -253 -113 -495 -307 -661 -201 -171 -487 -249
-731 -198 -434 89 -723 434 -725 864 -2 424 285 779 702 869 116 26 273 22
395 -8z"/>
<path d="M2861 3561 c-24 -24 -29 -42 -39 -130 -4 -40 -12 -66 -21 -69 -10 -3
-12 4 -6 36 6 37 5 40 -20 46 -32 8 -53 -7 -72 -51 -13 -32 -43 -46 -43 -20 0
6 9 36 20 65 25 65 26 120 3 129 -23 9 -50 -28 -58 -79 -5 -27 -17 -49 -36
-65 -15 -13 -29 -33 -31 -45 -2 -12 -9 -23 -17 -26 -11 -4 -12 5 -7 42 6 38 4
46 -8 46 -9 0 -18 -11 -22 -25 -3 -14 -12 -25 -20 -25 -8 0 -14 10 -14 25 0
29 -24 34 -39 8 -10 -17 -10 -17 -11 0 0 9 -4 17 -9 17 -12 0 -21 -26 -21 -60
0 -15 -7 -33 -15 -40 -18 -15 -19 -15 -38 31 -15 36 -15 37 14 58 57 42 24
107 -54 104 -76 -3 -137 -73 -137 -155 0 -39 5 -54 25 -73 28 -29 38 -31 59
-9 15 14 21 30 28 77 5 31 21 20 38 -25 17 -47 37 -56 82 -39 17 6 28 20 33
40 7 33 19 40 29 16 3 -8 12 -15 20 -15 7 0 16 -6 19 -14 6 -16 105 -20 128
-6 7 5 20 3 30 -3 14 -9 21 -9 30 0 8 8 18 9 31 2 11 -6 25 -6 36 -1 9 5 36 8
59 6 37 -3 42 0 53 27 13 32 38 55 27 25 -8 -21 9 -56 27 -56 23 0 60 36 52
49 -6 9 -13 8 -28 -6 -20 -18 -20 -18 -13 35 8 58 2 63 -32 30 l-24 -22 21 47
c22 50 24 108 3 114 -6 2 -21 -5 -32 -16z m14 -70 c-9 -28 -19 -51 -22 -51 -6
0 4 45 19 83 18 47 21 21 3 -32z m-200 12 c-10 -55 -27 -78 -19 -28 7 50 12
65 20 65 3 0 3 -17 -1 -37z m-331 -20 c5 -11 1 -22 -10 -30 -27 -20 -54 -16
-54 7 0 11 -5 20 -11 20 -6 0 -13 -9 -16 -20 -3 -11 -9 -20 -14 -20 -13 0 -11
-28 1 -32 16 -5 1 -88 -16 -88 -44 0 -40 106 6 152 34 34 103 40 114 11z m412
-108 c-7 -28 -26 -34 -26 -9 0 8 5 25 12 37 14 26 23 8 14 -28z m-140 -11 c-3
-8 -10 -14 -16 -14 -14 0 -13 33 3 49 10 10 13 9 15 -4 2 -9 1 -23 -2 -31z"/>
<path d="M2514 3489 c-9 -15 12 -33 30 -26 9 4 16 13 16 22 0 17 -35 21 -46 4z"/>
<path d="M2527 3119 c-30 -23 -28 -45 4 -29 18 10 19 7 19 -45 0 -42 -3 -55
-15 -55 -8 0 -15 -7 -15 -15 0 -11 12 -15 50 -15 38 0 50 4 50 15 0 8 -9 15
-20 15 -18 0 -20 7 -20 75 0 83 -6 89 -53 54z"/>
<path d="M928 2133 c-44 -5 -51 -28 -13 -37 l25 -6 0 -160 0 -160 -25 -10
c-14 -5 -25 -16 -25 -25 0 -12 15 -15 76 -15 66 0 75 2 72 18 -2 9 -13 18 -26
20 -20 3 -22 9 -22 73 l0 69 28 0 c37 0 53 -19 89 -105 29 -70 30 -70 71 -73
34 -3 42 0 42 13 0 9 -8 19 -18 21 -9 3 -35 39 -56 81 l-39 75 28 22 c22 18
29 33 33 75 5 61 -8 93 -46 111 -29 13 -136 20 -194 13z m169 -65 c28 -26 30
-67 4 -95 -20 -21 -84 -39 -101 -28 -6 3 -10 37 -10 76 l0 69 42 0 c29 0 49
-7 65 -22z"/>
<path d="M1283 2133 c-36 -5 -45 -28 -13 -36 19 -5 20 -14 20 -171 0 -159 -1
-166 -20 -166 -13 0 -20 -7 -20 -20 0 -18 7 -20 76 -20 66 0 75 2 72 18 -2 9
-13 18 -26 20 -20 3 -22 9 -22 73 l0 70 33 -3 c30 -3 35 -10 75 -90 l44 -88
39 0 c29 0 39 4 39 16 0 9 -9 18 -19 21 -11 3 -34 35 -56 80 -37 75 -37 76
-17 92 29 24 42 54 42 104 0 86 -83 120 -247 100z m174 -65 c43 -40 23 -101
-38 -118 -67 -20 -69 -18 -69 65 l0 75 42 0 c29 0 49 -7 65 -22z"/>
<path d="M1658 2133 c-50 -4 -67 -26 -28 -36 19 -5 20 -14 20 -171 0 -159 -1
-166 -20 -166 -13 0 -20 -7 -20 -20 0 -18 7 -20 76 -20 66 0 75 2 72 18 -2 9
-13 18 -26 20 -22 3 -22 5 -22 168 l0 164 26 6 c16 4 24 12 22 23 -3 17 -24
20 -100 14z"/>
<path d="M1848 2133 c-44 -5 -51 -28 -13 -37 l25 -6 0 -164 c0 -163 0 -165
-22 -168 -13 -2 -24 -11 -26 -20 -3 -16 7 -18 100 -18 131 0 174 18 213 84 64
110 36 264 -57 312 -32 16 -151 26 -220 17z m191 -58 c39 -19 56 -67 55 -150
0 -74 -19 -126 -52 -144 -10 -5 -42 -13 -70 -17 l-52 -7 0 167 0 166 45 0 c26
0 59 -7 74 -15z"/>
<path d="M2351 2131 c-22 -6 -32 -28 -84 -184 -50 -151 -63 -180 -83 -187 -13
-5 -24 -16 -24 -25 0 -12 15 -15 76 -15 66 0 75 2 72 18 -2 9 -13 18 -26 20
-25 4 -26 10 -12 46 9 25 13 26 84 26 68 0 74 -2 80 -22 10 -38 7 -46 -16 -50
-13 -2 -24 -11 -26 -20 -3 -16 6 -18 77 -18 66 0 81 3 81 15 0 9 -10 19 -22
24 -19 7 -33 40 -82 187 -32 99 -61 182 -65 185 -3 3 -17 3 -30 0z m28 -151
c12 -38 24 -76 27 -85 5 -12 -4 -15 -54 -15 l-61 0 25 73 c32 95 33 97 38 97
2 0 14 -31 25 -70z"/>
<path d="M2623 2133 c-57 -4 -73 -26 -28 -37 l25 -6 0 -160 0 -160 -25 -10
c-14 -5 -25 -16 -25 -25 0 -12 15 -15 81 -15 70 0 80 2 77 17 -2 9 -14 20 -28
23 -23 5 -25 10 -28 78 l-3 72 96 0 95 0 0 -74 c0 -70 -1 -75 -22 -78 -13 -2
-24 -11 -26 -20 -3 -16 6 -18 72 -18 69 0 76 2 76 20 0 13 -7 20 -20 20 -19 0
-20 7 -20 166 0 157 1 166 20 171 12 3 20 14 20 25 0 18 -5 20 -37 14 -21 -3
-55 -6 -75 -6 -44 0 -53 -24 -13 -34 23 -6 25 -10 25 -71 l0 -65 -95 0 -95 0
0 65 c0 65 0 66 30 72 21 4 30 11 28 22 -3 17 -23 20 -105 14z"/>
<path d="M3242 2123 c-83 -41 -127 -184 -91 -294 34 -100 149 -142 249 -89 44
23 50 31 40 51 -10 18 -11 18 -43 -1 -43 -27 -116 -27 -150 0 -63 50 -62 218
1 277 22 20 34 23 81 21 52 -3 55 -4 66 -38 6 -19 19 -36 28 -38 14 -3 17 6
17 51 l0 54 -39 11 c-54 17 -120 14 -159 -5z"/>
<path d="M3553 2133 c-36 -3 -53 -8 -53 -17 0 -8 8 -16 19 -19 17 -4 19 -18
23 -150 4 -155 12 -179 63 -213 33 -22 137 -22 170 0 46 30 57 70 63 220 4
124 7 139 23 143 11 3 19 14 19 25 0 18 -5 20 -37 14 -21 -3 -55 -6 -75 -6
-44 0 -53 -24 -13 -34 l25 -6 0 -130 c0 -76 -5 -139 -11 -154 -26 -57 -135
-55 -158 2 -7 17 -11 77 -9 157 3 126 4 130 26 133 14 2 22 10 22 23 0 14 -6
18 -22 17 -13 -1 -47 -3 -75 -5z"/>
<path d="M3968 2133 c-44 -5 -51 -28 -13 -37 l25 -6 0 -160 0 -160 -25 -10
c-14 -5 -25 -16 -25 -25 0 -12 14 -15 75 -15 61 0 75 3 75 15 0 9 -11 20 -26
25 -23 9 -25 14 -22 62 l3 53 58 6 c90 10 137 71 122 157 -12 70 -44 92 -143
97 -37 1 -84 1 -104 -2z m170 -63 c16 -15 22 -32 22 -65 0 -55 -33 -85 -91
-85 l-39 0 0 85 0 85 43 0 c30 0 50 -6 65 -20z"/>
<path d="M1579 1483 c5 -10 52 -65 104 -123 198 -221 449 -409 743 -558 l132
-66 114 57 c324 161 587 366 826 645 l54 62 -991 0 c-941 0 -991 -1 -982 -17z
m521 -112 c0 -6 -19 -11 -42 -13 -39 -3 -43 -6 -46 -30 -3 -26 -1 -28 32 -28
45 0 47 -18 4 -22 -29 -3 -33 -7 -36 -35 -3 -33 -3 -33 42 -33 25 0 46 -4 46
-10 0 -5 -25 -10 -55 -10 l-55 0 0 95 0 95 55 0 c30 0 55 -4 55 -9z m134 3
c23 -9 20 -26 -4 -19 -59 19 -83 -35 -26 -59 44 -18 59 -44 43 -77 -11 -20
-20 -24 -56 -24 -25 0 -46 5 -48 10 -2 6 16 10 39 10 37 0 43 3 46 22 3 17 -5
26 -34 40 -52 25 -62 44 -41 77 17 26 47 33 81 20z m181 -4 c4 -6 -7 -10 -24
-10 l-31 0 0 -85 c0 -109 -18 -112 -22 -2 -3 81 -3 82 -30 85 -16 2 -28 8 -28
13 0 12 127 12 135 -1z m181 -15 c19 -30 12 -55 -28 -101 l-30 -34 36 0 c25 0
36 -4 36 -15 0 -12 -13 -15 -60 -15 -38 0 -60 4 -60 11 0 7 18 32 41 56 52 57
51 87 -3 91 -61 5 -46 30 19 31 24 1 37 -5 49 -24z m163 -1 c15 -18 21 -41 21
-73 0 -60 -26 -91 -75 -91 -51 0 -71 38 -67 123 4 63 82 90 121 41z m180 0
c48 -61 14 -164 -53 -164 -57 0 -89 66 -66 135 20 60 83 75 119 29z m161 -39
c0 -51 3 -65 15 -65 8 0 15 -4 15 -9 0 -5 -7 -11 -15 -15 -8 -3 -15 -12 -15
-21 0 -22 -27 -18 -33 5 -4 16 -14 20 -46 20 -23 0 -41 3 -41 6 0 14 96 143
108 144 8 0 12 -19 12 -65z m-660 -110 c0 -8 -4 -15 -10 -15 -5 0 -10 7 -10
15 0 8 5 15 10 15 6 0 10 -7 10 -15z"/>
<path d="M2680 1329 c-15 -26 -7 -99 11 -110 35 -21 66 39 50 97 -9 37 -45 44
-61 13z"/>
<path d="M2856 1335 c-12 -31 -6 -93 10 -109 12 -12 20 -13 35 -5 17 9 20 19
17 67 -3 53 -5 57 -29 60 -17 2 -29 -3 -33 -13z"/>
<path d="M3040 1280 l-21 -30 25 0 c22 0 26 4 26 30 0 17 -2 30 -4 30 -3 0
-14 -13 -26 -30z"/>
</g>
</svg>
