<?xml version="1.0" encoding="UTF-8" standalone="no"?>
<!DOCTYPE svg PUBLIC "-//W3C//DTD SVG 1.1//EN" "http://www.w3.org/Graphics/SVG/1.1/DTD/svg11.dtd">
<svg width="100%" height="100%" viewBox="0 0 2000 2000" version="1.1" xmlns="http://www.w3.org/2000/svg" xmlns:xlink="http://www.w3.org/1999/xlink" xml:space="preserve" xmlns:serif="http://www.serif.com/" style="fill-rule:evenodd;clip-rule:evenodd;stroke-linejoin:round;stroke-miterlimit:2;">
    <g id="England-Rridah-Cup-Logo" serif:id="England Rridah Cup Logo" transform="matrix(0.855795,0,0,0.855795,142.751,143.295)">
        <path id="Grey-Background" serif:id="Grey Background" d="M1542.49,1592.99C1520.96,1619.56 1498.33,1645.23 1474.69,1669.94C1441.65,1704.48 1406.65,1737.13 1370.01,1767.82C1340.3,1792.72 1309.51,1816.33 1277.83,1838.66C1243.29,1863.01 1207.67,1885.84 1171.21,1907.2C1138.53,1926.34 1105.16,1944.32 1071.24,1961.17C1060.28,1966.61 1049.26,1971.94 1038.19,1977.15C1032.91,1979.64 1027.61,1982.1 1022.3,1984.54C1014.96,1987.91 1007.61,1991.26 1000.26,1994.62L979.691,1985.41C978.346,1984.81 977.003,1984.21 975.659,1983.6C968.977,1980.58 962.31,1977.52 955.666,1974.42C943.184,1968.58 930.774,1962.59 918.443,1956.44C883.096,1938.82 848.394,1919.9 814.497,1899.62C779.022,1878.4 744.428,1855.7 710.914,1831.5C676.528,1806.67 643.28,1780.26 611.385,1752.3C576.322,1721.57 542.902,1688.96 511.385,1654.6C493.057,1634.61 475.374,1614.04 458.379,1592.91L136.383,1541.71L20.227,1068.81L201.024,1040.67C197.925,1025.93 195.055,1011.14 192.411,996.321C190.172,983.769 188.095,971.188 186.177,958.583C172.483,868.587 166.917,777.406 168.587,686.407C168.864,671.327 169.339,656.251 170.009,641.184C170.783,623.8 171.816,606.427 173.102,589.073C174.646,568.255 176.555,547.464 178.819,526.712C180.768,508.853 182.981,491.023 185.452,473.229C186.647,464.624 187.906,456.029 189.217,447.441L191.682,431.394L203.071,419.804C203.893,418.97 204.715,418.136 205.538,417.303C211.706,411.072 217.924,404.89 224.202,398.77C236.707,386.58 249.437,374.621 262.386,362.903C295.4,333.025 329.839,304.722 365.562,278.141C398.401,253.705 432.322,230.726 467.182,209.272C501.2,188.336 536.111,168.853 571.764,150.842C608.316,132.376 645.647,115.458 683.593,100.062C722.169,84.411 761.379,70.332 801.064,57.758C841.618,44.91 882.666,33.633 924.06,23.827C938.494,20.408 952.97,17.168 967.483,14.101C974.79,12.557 982.107,11.061 989.432,9.601L999.99,7.507C1006.11,8.719 1012.24,9.922 1018.36,11.163C1026.67,12.848 1034.97,14.591 1043.26,16.391C1069.6,22.115 1095.82,28.425 1121.88,35.347C1160.46,45.595 1198.68,57.188 1236.42,70.2C1275.28,83.597 1313.61,98.499 1351.28,114.953C1394.33,133.765 1436.5,154.608 1477.55,177.481C1520.66,201.503 1562.52,227.764 1602.88,256.161C1644.97,285.779 1685.43,317.716 1724.05,351.743C1741.37,367.008 1758.33,382.692 1774.9,398.768C1780.56,404.257 1786.17,409.792 1791.75,415.371C1794.53,418.161 1797.3,420.964 1800.07,423.775L1811.91,435.839L1814.03,453.04C1814.2,454.438 1814.38,455.835 1814.55,457.232C1815.64,466.28 1816.69,475.332 1817.68,484.392C1819.56,501.619 1821.25,518.867 1822.73,536.133C1824.42,555.85 1825.85,575.59 1827,595.346C1827.89,610.785 1828.61,626.234 1829.15,641.689C1829.6,654.307 1829.92,666.93 1830.12,679.554C1831.57,770.653 1826.61,861.926 1813.73,952.148C1811.48,967.904 1808.99,983.625 1806.25,999.302C1803.84,1013.1 1801.24,1026.87 1798.44,1040.6L1983.17,1069.31L1867.02,1541.52L1542.49,1592.99Z" style="fill:rgb(147,149,152);"/>
        <g id="White-Background" serif:id="White Background" transform="matrix(1.37631,0,0,1.37631,-374.611,-628.962)">
            <path d="M463.349,1261.12C421.928,1107.43 417.791,944.051 442.173,785.825C590.016,635.192 776.419,539.757 998.765,495.777C1232.76,541.949 1415.35,643.548 1557.59,788.662C1579.15,962.422 1571.1,1120.48 1534.15,1261.12L1677.35,1261.12L1603.03,1552.75L1398.82,1552.75C1304.1,1685.27 1170.38,1792.05 998.813,1870.36C821.23,1791.03 690.703,1680.84 599.586,1552.75L393.189,1552.75L320.576,1261.12L463.349,1261.12Z" style="fill:white;"/>
        </g>
        <path id="Red-Triangle" serif:id="Red Triangle" d="M1000.27,1878.79C1210.21,1784.47 1364.69,1657.6 1480.61,1508.1L519.525,1508.1C637.434,1663.4 797.74,1786.92 1000.27,1878.79Z" style="fill:rgb(196,50,52);"/>
        <g id="Est-Date-White" serif:id="Est Date White" transform="matrix(1.1685,0,0,1.1685,-166.805,-167.441)">
            <path d="M1061.1,1565.04C1077.3,1565.04 1091.12,1554.73 1091.12,1527.42L1091.12,1522.55C1091.12,1495.25 1077.3,1485.17 1061.21,1485.17C1045.24,1485.17 1030.96,1495.14 1030.96,1522.89L1030.96,1527.76C1030.96,1554.16 1044.11,1565.04 1061.1,1565.04ZM1134.29,1565.04C1150.49,1565.04 1164.31,1554.73 1164.31,1527.42L1164.31,1522.55C1164.31,1495.25 1150.49,1485.17 1134.4,1485.17C1118.43,1485.17 1104.15,1495.14 1104.15,1522.89L1104.15,1527.76C1104.15,1554.16 1117.29,1565.04 1134.29,1565.04ZM1222.77,1538.75L1234.21,1538.75L1234.21,1549.06L1222.77,1549.06L1222.77,1564.92L1209.63,1564.92L1209.63,1549.06L1173.94,1549.06L1173.94,1540.91L1213.25,1485.96L1222.77,1485.96L1222.77,1538.75ZM848.923,1564.87C866.699,1564.87 874.398,1556.04 874.398,1542.8C874.398,1530 867.265,1525.25 856.056,1521.4L848.584,1519.02C839.979,1516.08 837.262,1512.9 837.262,1505.66C837.262,1498.41 842.47,1493.88 851.754,1493.88C860.132,1493.88 866.133,1496.04 870.548,1498.07L870.548,1490.49C866.359,1488.45 861.038,1486.3 852.093,1486.3C836.243,1486.3 828.43,1494.68 828.43,1506.45C828.43,1518 834.431,1523.43 845.074,1526.94L852.433,1529.55C861.604,1532.49 865.34,1535.66 865.34,1543.48C865.34,1551.74 860.245,1557.17 848.584,1557.17C840.545,1557.17 833.073,1555.14 827.298,1552.19L827.298,1559.78C832.393,1562.61 839.639,1564.87 848.923,1564.87ZM1020.09,1563.68L970.692,1563.68L970.692,1555.52L985.533,1539.89C996.296,1528.56 1004.91,1518.93 1004.91,1509.18C1004.91,1499.78 999.808,1496.16 989.952,1496.16C984.514,1496.16 978.169,1498.76 973.864,1501.37L971.598,1491.06C976.81,1488 984.74,1485.17 993.69,1485.17C1010.68,1485.17 1019.41,1493.32 1019.41,1507.37C1019.41,1521.19 1007.62,1533.54 998.109,1543.4L988.932,1552.8L1020.09,1552.8L1020.09,1563.68ZM951.021,1563.52L941.171,1563.52L941.171,1553.44L951.021,1553.44L951.021,1563.52ZM810.851,1495.13L774.734,1495.13L774.734,1520.6L802.586,1520.6L802.586,1528.19L774.734,1528.19L774.734,1555.93L811.19,1555.93L811.19,1563.52L765.789,1563.52L765.789,1487.54L810.851,1487.54L810.851,1495.13ZM940.236,1495.13L917.026,1495.13L917.026,1563.52L908.195,1563.52L908.195,1495.13L884.985,1495.13L884.985,1487.54L940.236,1487.54L940.236,1495.13ZM1061.1,1554.39C1050.56,1554.39 1045.46,1545.78 1045.46,1527.76L1045.46,1521.76C1045.46,1503.63 1050.68,1495.93 1061.21,1495.93C1071.41,1495.93 1076.73,1504.09 1076.73,1522.55L1076.73,1528.33C1076.73,1546.91 1071.52,1554.39 1061.1,1554.39ZM1134.29,1554.39C1123.75,1554.39 1118.65,1545.78 1118.65,1527.76L1118.65,1521.76C1118.65,1503.63 1123.86,1495.93 1134.4,1495.93C1144.6,1495.93 1149.92,1504.09 1149.92,1522.55L1149.92,1528.33C1149.92,1546.91 1144.71,1554.39 1134.29,1554.39ZM1209.74,1538.75L1209.74,1509.52L1189.12,1538.75L1209.74,1538.75Z" style="fill:white;"/>
        </g>
        <g id="Rridah-Cup-Black" serif:id="Rridah Cup Black" transform="matrix(1.37631,0,0,1.37631,-374.611,-628.962)">
            <path d="M1308.86,1375.7L1294.36,1375.7L1289.15,1351.85C1282.19,1349.06 1273.94,1347.66 1264.41,1347.66C1251.27,1347.66 1241.22,1352.83 1234.27,1363.15C1227.31,1373.47 1223.83,1387.91 1223.83,1406.47C1223.83,1425.16 1227.6,1439.04 1235.14,1448.11C1242.67,1457.17 1252.75,1461.71 1265.38,1461.71C1268.21,1461.71 1271.27,1461.36 1274.56,1460.66C1277.84,1459.96 1281.03,1458.95 1284.12,1457.63C1287.21,1456.3 1290.05,1454.91 1292.62,1453.44C1295.2,1451.98 1297.33,1450.55 1299,1449.15L1304.03,1444.97L1311.75,1458.57C1308.92,1461.64 1305.67,1464.5 1302,1467.15C1298.32,1469.8 1294.39,1472.14 1290.21,1474.16C1286.02,1476.18 1281.67,1477.75 1277.16,1478.87C1272.66,1479.98 1268.08,1480.54 1263.45,1480.54C1243.74,1480.54 1228.5,1474.37 1217.75,1462.02C1206.99,1449.68 1201.61,1431.65 1201.61,1407.93C1201.61,1396.07 1203.12,1385.33 1206.15,1375.7C1209.18,1366.08 1213.53,1357.88 1219.2,1351.12C1224.86,1344.35 1231.66,1339.12 1239.58,1335.42C1247.5,1331.73 1256.42,1329.88 1266.34,1329.88C1269.31,1329.88 1272.56,1330.12 1276.1,1330.61C1279.64,1331.1 1283.12,1331.76 1286.54,1332.6C1289.95,1333.44 1293.17,1334.31 1296.2,1335.21C1299.23,1336.12 1301.71,1336.99 1303.64,1337.83L1309.82,1340.34L1308.86,1375.7ZM1447.02,1348.71L1447.02,1418.81C1447.02,1439.32 1443.02,1454.73 1435.04,1465.06C1427.05,1475.38 1413.59,1480.54 1394.65,1480.54C1375.71,1480.54 1362.32,1475.76 1354.46,1466.21C1346.6,1456.65 1342.67,1441.9 1342.67,1421.95L1342.67,1348.71L1326.25,1344.53L1326.25,1333.02L1381.32,1331.97L1381.32,1344.53L1362.96,1348.71L1362.96,1421.95C1362.96,1437.3 1365.41,1447.93 1370.3,1453.86C1375.2,1459.79 1383.51,1462.76 1395.23,1462.76C1406.95,1462.76 1415.13,1459.51 1419.77,1453.03C1424.41,1446.54 1426.73,1435.13 1426.73,1418.81L1426.73,1348.71L1408.37,1344.53L1408.37,1333.02L1463.44,1331.97L1463.44,1344.53L1447.02,1348.71ZM468.294,1478.45L415.155,1478.45L415.155,1465.89L431.579,1461.71L431.579,1348.71L415.155,1344.53L415.155,1333.02L451.869,1331.97L473.124,1331.97C486.78,1331.97 497.44,1335.32 505.104,1342.02C512.769,1348.71 516.602,1357.92 516.602,1369.64C516.602,1390.14 508.228,1403.75 491.482,1410.44C494.573,1413.37 498.438,1419.65 503.075,1429.28L518.341,1462.55L532.06,1465.89L532.06,1478.45L503.075,1478.45L486.651,1439.74C482.142,1429.28 478.245,1422.47 474.96,1419.34C471.675,1416.2 466.877,1414.63 460.564,1414.63L451.869,1414.63L451.869,1461.71L468.294,1465.89L468.294,1478.45ZM593.895,1478.45L540.756,1478.45L540.756,1465.89L557.181,1461.71L557.181,1348.71L540.756,1344.53L540.756,1333.02L577.47,1331.97L598.726,1331.97C612.381,1331.97 623.041,1335.32 630.706,1342.02C638.371,1348.71 642.203,1357.92 642.203,1369.64C642.203,1390.14 633.83,1403.75 617.083,1410.44C620.174,1413.37 624.039,1419.65 628.677,1429.28L643.942,1462.55L657.662,1465.89L657.662,1478.45L628.677,1478.45L612.252,1439.74C607.743,1429.28 603.846,1422.47 600.561,1419.34C597.276,1416.2 592.478,1414.63 586.166,1414.63L577.47,1414.63L577.47,1461.71L593.895,1465.89L593.895,1478.45ZM719.496,1478.45L666.357,1478.45L666.357,1465.89L682.782,1461.71L682.782,1348.71L666.357,1344.53L666.357,1333.02L719.496,1331.97L719.496,1344.53L703.071,1348.71L703.071,1461.71L719.496,1465.89L719.496,1478.45ZM796.789,1478.45L738.819,1478.45L738.819,1465.89L755.244,1461.71L755.244,1348.71L738.819,1344.53L738.819,1333.02L775.534,1331.97L799.688,1331.97C809.22,1331.97 817.755,1333.54 825.291,1336.68C832.827,1339.82 839.204,1344.42 844.421,1350.49C849.638,1356.56 853.632,1364.02 856.401,1372.88C859.171,1381.74 860.556,1391.89 860.556,1403.33C860.556,1414.77 859.042,1425.09 856.015,1434.3C852.988,1443.5 848.704,1451.39 843.165,1457.94C837.626,1464.5 830.927,1469.56 823.069,1473.11C815.211,1476.67 806.451,1478.45 796.789,1478.45ZM912.729,1478.45L859.59,1478.45L859.59,1465.89L875.435,1461.92L919.492,1333.02L938.815,1331.97L981.713,1461.92L997.751,1465.89L997.751,1478.45L941.714,1478.45L941.714,1465.89L959.684,1461.92L952.341,1438.69L902.101,1438.69L894.565,1461.92L912.729,1465.89L912.729,1478.45ZM1058.62,1478.45L1003.55,1478.45L1003.55,1465.89L1019.97,1461.71L1019.97,1348.71L1003.55,1344.53L1003.55,1333.02L1058.62,1331.97L1058.62,1344.53L1040.26,1348.71L1040.26,1394.75L1105,1394.75L1105,1348.71L1086.64,1344.53L1086.64,1333.02L1141.71,1331.97L1141.71,1344.53L1125.29,1348.71L1125.29,1461.71L1141.71,1465.89L1141.71,1478.45L1086.64,1478.45L1086.64,1465.89L1105,1461.71L1105,1411.49L1040.26,1411.49L1040.26,1461.71L1058.62,1465.89L1058.62,1478.45ZM1532.04,1478.45L1478.9,1478.45L1478.9,1465.89L1495.33,1461.71L1495.33,1348.71L1478.9,1344.53L1478.9,1333.02L1515.62,1331.97L1535.9,1331.97C1550.2,1331.97 1561.18,1335.81 1568.85,1343.48C1576.52,1351.15 1580.35,1361.62 1580.35,1374.87C1580.35,1390.91 1575.81,1403.12 1566.73,1411.49C1557.64,1419.86 1544.79,1424.04 1528.17,1424.04L1515.62,1424.04L1515.62,1461.71L1532.04,1465.89L1532.04,1478.45ZM775.534,1461.71L797.755,1461.71C810.509,1461.71 820.46,1456.97 827.61,1447.48C834.759,1437.99 838.334,1423.69 838.334,1404.58C838.334,1385.33 834.856,1371.21 827.9,1362.21C820.943,1353.21 811.217,1348.71 798.721,1348.71L775.534,1348.71L775.534,1461.71ZM927.608,1358.96L907.318,1421.95L947.124,1421.95L927.608,1358.96ZM1534.94,1348.71L1515.62,1348.71L1515.62,1407.3L1528.17,1407.3C1549.43,1407.3 1560.06,1397.54 1560.06,1378.01C1560.06,1369.36 1557.87,1362.31 1553.49,1356.87C1549.11,1351.43 1542.92,1348.71 1534.94,1348.71ZM451.869,1348.71L451.869,1398.93L466.361,1398.93C475.765,1398.93 483.108,1396.63 488.39,1392.03C493.671,1387.42 496.312,1381.36 496.312,1373.82C496.312,1366.15 494.058,1360.05 489.549,1355.51C485.04,1350.98 479.243,1348.71 472.158,1348.71L451.869,1348.71ZM577.47,1348.71L577.47,1398.93L591.962,1398.93C601.366,1398.93 608.709,1396.63 613.991,1392.03C619.273,1387.42 621.914,1381.36 621.914,1373.82C621.914,1366.15 619.659,1360.05 615.15,1355.51C610.642,1350.98 604.845,1348.71 597.759,1348.71L577.47,1348.71Z"/>
        </g>
        <g id="Welsh-Flag" serif:id="Welsh Flag" transform="matrix(1.1685,0,0,1.1685,-166.805,-167.441)">
            <path id="White-Background1" serif:id="White Background" d="M1024.83,246.374C1269.28,299.021 1461.38,408.132 1612.08,561.88C1635.67,752.034 1626.86,925 1586.43,1078.92C1585.42,1082.77 1584.38,1086.61 1583.33,1090.43L1024.83,1090.43L1024.83,246.374Z" style="fill:white;"/>
            <path id="Green-Background" serif:id="Green Background" d="M1624.57,727.597C1627.59,853.646 1614.79,970.966 1586.43,1078.92C1585.42,1082.77 1584.38,1086.6 1583.33,1090.43L1024.83,1090.43L1024.83,1085.1C1024.89,1054.3 1025.19,901.833 1025.33,727.597L1624.57,727.597Z" style="fill:rgb(1,159,98);"/>
            <g id="Welsh-Dragon" serif:id="Welsh Dragon">
                <path id="Black-Dragon" serif:id="Black Dragon" d="M1618.64,896.749C1618.33,897.69 1618.01,898.633 1617.67,899.579C1615.6,886.665 1610.61,875.349 1599.16,867.553C1588.82,884.018 1572.27,900.536 1550,913.59C1536.87,924.922 1545.06,933.695 1563.05,932.24C1603.32,927.425 1601.52,962.437 1577.35,976.38C1575.4,944.795 1544.68,951.575 1524.51,958.351C1495.29,968.918 1419.41,953.596 1436.86,990.055C1421.49,984.28 1410.05,974.586 1412.61,950.89C1401.79,939.57 1404.45,929.422 1413.23,919.808C1413.26,902.876 1427.94,899.424 1449.29,902.098C1468.76,904.291 1483.44,923.1 1507.71,908.348C1530.55,894.964 1537.67,872.591 1542.54,848.938C1523.68,850.68 1504.82,847.623 1485.97,834.019C1464.92,849.883 1442.65,860.23 1418.21,860.749C1417.44,879.442 1407.82,893.477 1390.86,903.645C1405.85,869.976 1376.73,868.402 1371.58,896.805C1366.71,916.798 1327.63,949.259 1356.01,949.112C1394.31,949.562 1405.17,969.217 1378.37,992.255C1374.9,962.859 1338.19,973.418 1307.55,978.867C1268.06,986.87 1203.31,970.899 1236.06,1000C1213.13,994.535 1196.06,979.736 1209.33,963.573C1190.61,948.809 1192.14,935.428 1207.2,926.628C1191.72,901.644 1211.3,888.598 1242.28,898.67C1271.66,906.722 1300.31,945.441 1319.99,909.241C1329.09,889.758 1333.94,869.502 1333.66,848.317C1313.37,840.516 1303.3,817.92 1283.95,835.92C1266.52,854.889 1244.93,858.513 1222.39,857.022C1275.12,810.247 1216.94,766.355 1213.41,721.178C1201.94,753.105 1165.21,746.349 1164.93,711.784C1180.41,725.443 1191.67,714.992 1195.65,687.31C1182.75,655.833 1151.14,647.431 1135.35,674.252C1123.81,637.108 1146.05,629.164 1172.65,635.713C1169.45,621.176 1156.62,615.241 1137.22,615.197C1159.49,598.819 1179.12,599.963 1196.28,617.684C1195.8,605.109 1190.2,597.647 1179.49,595.304C1208.5,585.271 1222.13,599.947 1223.01,635.091C1225.2,657.145 1247.54,662.892 1249.74,691.659C1250.62,713.374 1257.04,729.122 1269.01,738.908C1267.32,654.1 1316.12,632.907 1324.34,580.384C1302.2,568.562 1290.92,603.734 1262.7,599.584C1271.76,594.889 1276.56,588.488 1277.09,580.384C1261.99,586.303 1246.36,588.496 1229.56,582.481C1249.04,577.351 1260.63,568.435 1265.87,548.852C1254.25,554.759 1241.08,558.984 1219.98,553.894C1219.07,563.668 1220.65,572.947 1223.35,581.999C1184.68,553.472 1170.39,511.608 1181.02,459.919C1192.09,494.727 1211.54,519.575 1245.68,526.989L1231.22,535.423C1239.81,539.365 1248.18,539.517 1256.33,538.313C1259.92,495.696 1219.57,512.162 1215.9,472.534C1250.05,496.298 1280.05,482.339 1310.04,494.596C1297.21,477.787 1328.63,471.394 1342.12,478.768C1383.02,498.076 1368.62,490.845 1397.05,483.3C1414.97,478.022 1427.21,475.22 1436.16,453.298C1441.2,481.773 1429.67,502.257 1404.45,515.279C1422.28,523.872 1435.88,541.41 1439.6,562.241C1431.07,556.19 1423.05,550.199 1412.53,550.275C1429.26,567.697 1436.68,590.752 1432.69,617.585C1426.05,606.121 1418.8,596.93 1409.33,595.842C1424.65,612.172 1431.07,634.17 1425.67,663.686C1418.21,651.692 1409.39,643.7 1400.98,641.122C1400.43,655.18 1402.24,668.297 1406.4,680.47C1457.99,667.205 1431.17,576.123 1464.21,527.543C1481.49,508.518 1512.39,505.675 1550.77,503.845C1571.93,522.407 1592.36,541.761 1612.08,561.88C1616.74,599.445 1620.13,636.339 1622.27,672.548C1604.27,672.657 1589.39,679.218 1577.97,692.902C1594.15,686.743 1609.08,684.56 1622.99,685.644C1625.36,732.074 1625.63,777.365 1623.83,821.486C1616.16,816.406 1608.09,811.864 1599.11,808.533C1611.39,823.34 1619.2,838.802 1622.05,854.991C1621.13,869.033 1619.99,882.953 1618.64,896.749ZM1211.44,963.688C1212.03,948.211 1224.81,948.263 1238.23,957.032C1227.4,957.351 1218.47,959.567 1211.44,963.688ZM1213.64,926.018C1218.7,913.928 1228.81,917.771 1236.84,928.704C1228.16,925.739 1220.43,924.842 1213.64,926.018ZM1268.86,547.281C1285.49,554.181 1302.12,543.419 1318.74,527.543C1297.35,517.766 1277.63,520.361 1259.9,537.707C1274.47,534.913 1288.35,528.867 1301.51,533.829C1288.4,535.507 1279.03,541.801 1268.86,547.281Z"/>
                <path id="Red-Dragon" serif:id="Red Dragon" d="M1372.57,740.562C1326.43,777.906 1364.6,806.01 1336.03,896.383C1323.18,926.141 1303.48,942.85 1278.67,928.357C1261.03,916.99 1206.26,875.863 1211.01,921.282C1225.6,897.056 1241.02,932.622 1262.43,935.971C1244.06,941.642 1191.28,912.916 1207.58,955.45C1220.69,930.892 1241.44,956.57 1261.93,955.764C1251.44,966.048 1191,960.492 1219.83,986.607C1215.21,974.486 1248.81,973.015 1269.03,975.367C1305.51,977.296 1366.25,953.062 1383,978.018C1396.43,947.912 1354.98,960.675 1341.11,953.229C1330.71,947.342 1333.44,938.725 1342.12,928.868C1371.49,901.162 1363.01,874.651 1383.74,865.42C1394.93,861.207 1401.75,866.277 1406.58,875.572C1418.07,825.218 1397.38,815.975 1408.88,796.902C1416.42,784.347 1425.66,776.132 1439.57,771.524C1430.1,765.262 1414.37,748.577 1407.57,756.916C1399.04,768.06 1398.26,777.025 1398.97,789.465C1385.92,777.415 1378.46,759.77 1372.57,740.562ZM1583.78,803.057C1605.68,820.619 1612.14,844.191 1616.38,868.621C1608.93,862.395 1603.44,858.122 1594.04,855.802C1584.51,877.505 1565.95,897.224 1537.63,914.407C1528.38,923.778 1533.69,938.37 1551.91,937.852C1579.26,935.285 1593.67,940.901 1583.42,963.126C1573.65,938.462 1544.1,946.764 1529.2,950.671C1502.46,960.44 1482.69,957.387 1457.41,959.463C1443.86,961.293 1431.04,955.434 1426.64,976.312C1400.39,935.656 1453.63,955.434 1468.03,945.911C1449.48,948.717 1422.12,924.053 1417.85,944.445C1401.25,909.157 1449.11,933.946 1464.74,928.692C1450.33,926.253 1437.39,909.157 1420.41,919.537C1427.06,900.392 1455.49,909.193 1479.02,920.999C1513.77,931.562 1542.95,887.657 1552.28,864.591C1559.18,839.225 1555.76,819.02 1537.27,806.353C1553.69,802.016 1568.34,801.773 1583.78,803.057ZM1199.53,601.191C1223.84,609.438 1210.98,634.326 1219,650.006C1227.62,668.7 1241.2,663.319 1243.46,706.088C1245.01,731.745 1255.06,750.319 1273.61,761.815C1277.76,781.413 1286.54,799.465 1299.18,816.23C1277.75,816.912 1274.73,840.253 1248.7,843.769C1266.22,789.433 1207.95,746.816 1220.26,704.988C1209.01,704.294 1204.42,755.238 1174.51,727.213C1188.97,730.617 1200.23,716.937 1203.36,690.248C1200.57,673.491 1168.75,639.384 1141.18,656.26C1152.08,617.768 1181.75,660.003 1199.38,656.563C1175.38,648.886 1178.28,617.485 1160.99,611.578C1194.62,609.776 1193.2,639.141 1205.94,641.588C1192.59,626.709 1212.53,616.429 1199.53,601.191ZM1624.21,811.252C1623.9,811.909 1623.57,812.578 1623.2,813.265C1616.38,809.219 1609.56,805.42 1602.84,802.291C1602.66,791.808 1598.95,786.559 1593.4,779.811C1593.81,786.798 1594.28,791.557 1592.45,798.026C1583.84,795.001 1575.47,793.479 1567.53,794.411C1566.37,794.547 1565.26,794.69 1564.13,794.83C1561.75,783.884 1556.81,775.685 1549.72,769.794C1551.84,778.205 1553.48,786.79 1552,796.508C1542.45,797.975 1534.01,799.633 1526.5,801.414C1522.68,790.19 1516.49,782.326 1508.35,777.252C1511.73,785.646 1514.62,794.296 1514.21,804.691C1505.44,807.294 1498.22,810.084 1492.1,812.922C1486.91,801.51 1479.95,790.358 1469.67,788.6C1475.41,796.002 1479.74,807.931 1480.63,818.96C1469.77,825.434 1463.12,831.671 1455.68,836.072C1455.88,820.814 1448.59,799.808 1438.01,796.958C1443.14,804.444 1445.74,828.012 1440.32,841.676C1434.78,842.553 1428.13,842.613 1419.57,841.596C1420.65,827.311 1408.35,809.665 1422.09,797.66C1480.14,753.084 1561.77,758.339 1624.84,784.842C1624.71,793.691 1624.5,802.494 1624.21,811.252ZM1544.23,841.919C1545.94,824.852 1536.93,816.087 1525.4,811.144C1514.37,814.879 1503.96,820.017 1494.92,828.232C1498.84,831.285 1503.01,833.716 1507.4,835.629C1516.64,832.704 1523.3,827.765 1529.17,822.221C1528.82,828.032 1526.9,834.015 1522.79,840.245C1529.64,841.521 1536.83,841.975 1544.23,841.919ZM1354.03,525.905C1368.35,545.205 1361.32,572.429 1328.49,569.603C1298.01,565.752 1296.71,583.733 1280.27,591.692C1284.2,584.203 1283.65,577.124 1281.05,570.232C1273.44,577.196 1263.78,579.671 1253.19,580.101C1263.88,572.935 1268.3,563.592 1270.67,554.643C1296.04,566.354 1317.41,520.145 1337.44,536.759C1318,516.052 1293.99,510.069 1263.26,525.602C1261.79,518.942 1259.21,513.027 1254.17,508.742C1260.52,507.255 1267.17,507.546 1274.12,509.619C1260.91,498.697 1245.92,509.603 1227.15,486.875C1255.76,500.224 1280.8,487.066 1313.2,504.875C1343.98,519.109 1337.88,501.894 1353.51,499.343C1339.54,492.978 1331.14,502.651 1322.97,496.955C1310.65,488.593 1324.17,480.972 1334.12,482.782C1345.58,485.604 1357.04,490.873 1368.5,497.258C1365,501.483 1362.69,506.007 1361.56,510.826C1396.59,478.612 1396.87,500.308 1427.22,480.123C1423.97,492.83 1411.88,508.766 1387.84,517.682C1432.09,563.121 1373.66,624.983 1387.93,685.202C1336.23,700.567 1326.9,753.683 1335.98,825.685C1327.1,817.541 1319.53,809.645 1313.07,801.98C1325.6,790.067 1328.9,774.199 1329.52,757.179C1322.78,772.8 1313.85,783.793 1300.26,784.877C1294.19,775.634 1289.77,766.721 1286.71,758.096C1301.78,750.546 1309.65,736.687 1315.4,720.975C1304.99,732.785 1294.04,740.255 1281.96,738.796C1280.46,728.062 1280.94,717.758 1282.75,707.782C1293.45,703.238 1302.03,694.983 1309.85,685.389C1301.55,690.092 1293.59,693.221 1286.17,693.779C1289.8,681.837 1295.03,670.326 1300.68,659.05C1306.97,656.18 1312.95,652.25 1318.78,647.794C1313.98,649.185 1309.36,650.17 1304.99,650.624C1309.45,642.038 1313.99,633.56 1318.08,625.11C1324.08,622.276 1329.79,618.494 1335.36,614.233C1330.65,615.592 1326.13,616.568 1321.84,617.035C1324.99,609.956 1327.71,602.877 1329.69,595.742C1333.21,593.614 1336.65,591.202 1340.03,588.611C1336.91,589.512 1333.88,590.242 1330.94,590.772C1331.74,587.236 1332.33,583.681 1332.7,580.109L1348.3,577.232C1355.14,615.835 1304.5,658.544 1328.18,709.057C1320.71,621.67 1392.91,596.707 1367.38,541.761C1363.82,534.993 1359.37,529.704 1354.03,525.905ZM1624.97,773.57C1578.9,755.439 1528.11,751.932 1486.37,757.402C1488.8,730.705 1514.14,714.143 1564.28,740.522C1562.38,728.186 1564.33,715.849 1570.12,703.513C1589.14,697.448 1606.74,695.098 1623.56,697.584C1624.67,723.267 1625.14,748.597 1624.97,773.57ZM1471.54,761.205C1456.64,737.636 1436.02,738.752 1450.47,768.69L1471.54,761.205ZM1621.66,662.622C1588.69,663.866 1555.48,685.837 1553.38,724.949C1529.45,707.136 1486.44,710.373 1477.08,754.775C1455.77,727.93 1429.4,727.484 1438.93,760.324C1413.03,742.443 1404.66,738.31 1393.15,763.792C1386.92,752.874 1383.59,739.896 1382.08,728.038C1364.65,728.337 1352.4,740.291 1342.51,757.55C1342.36,716.583 1369.58,708.902 1396.62,713.848C1395.19,721.246 1397.77,729.353 1400.11,736.751C1408.07,722.474 1420.26,715.263 1425.75,702.751C1428.12,709.671 1427.2,717.531 1422.98,726.336C1438.53,709.603 1447.72,691.188 1454.34,672.487C1478.38,699.702 1469.54,720.262 1474.38,741.666C1479.17,698.877 1476.45,683.599 1459.41,656.627C1463.37,643.075 1466.55,629.586 1470.39,616.684C1516.21,643.071 1519.43,657.559 1551.29,706.359C1531.19,663.239 1524.5,639.156 1475.56,601.139C1477.78,595.204 1480.29,589.456 1483.26,583.952C1537.44,590.976 1573.42,611.451 1620.23,642.606C1620.75,649.301 1621.22,655.973 1621.66,662.622ZM1559.13,511.257C1563.83,515.463 1568.49,519.708 1573.12,523.994C1543.01,526.878 1516.24,531.377 1497.19,543.905C1455.19,567.323 1460.51,653.956 1433.69,704.214C1432.55,697.363 1432,690.626 1429.91,684.715C1422.99,700.169 1412.9,708.559 1404.56,719.775C1403.76,715.949 1403.42,712.126 1403.55,708.3C1392.69,705.012 1380.45,704.717 1369.58,706.626C1465.96,685.114 1437.24,613.838 1468.06,546.68C1477.67,525.984 1505.91,516.223 1559.13,511.257ZM1407.56,604.918C1404.76,613.651 1403.31,622.388 1401.18,631.121C1409.35,634.716 1415.85,639.3 1421.34,645.57C1420.94,629.499 1416.91,615.612 1407.56,604.918ZM1620.16,641.743C1585.28,610.559 1554.65,585.92 1492.07,570.284C1493.03,569.033 1494.02,567.797 1495.05,566.585C1534.99,560.173 1574.32,563.346 1613.31,572.014C1616.09,595.523 1618.38,618.767 1620.16,641.743ZM1412.6,561.244C1412.6,570.539 1411.7,579.83 1409.91,589.129C1418.21,588.775 1423.36,593.932 1428.06,599.879C1425.14,583.864 1419.99,570.986 1412.6,561.244ZM1231.69,528.799L1217.59,534.148C1243.12,551.817 1265.49,537.875 1284.94,535.607C1266.78,541.279 1245.95,559.594 1215.16,546.305C1213.45,552.057 1212.56,560.244 1213.45,565.999C1194.58,546.971 1182.97,516.299 1184.52,484.547C1192.83,505.864 1208.14,523.286 1231.69,528.799ZM1580.64,531.03C1591.32,541.102 1601.79,551.387 1612.08,561.88L1612.31,563.743C1584.06,554.656 1552.44,548.935 1514.67,549.366C1531.99,537.13 1555.23,533.486 1580.64,531.03ZM1601.95,562.021L1602.51,561.981L1603.03,561.87L1603.59,561.758L1603.56,561.607L1603.45,561.459L1603.34,561.348L1602.92,561.607L1602.47,561.834L1601.95,562.021ZM1401.52,520.257C1412.88,525.407 1423.41,535.487 1429.4,547.804C1423.52,544.555 1417.25,542.092 1409.58,542.431C1409.58,534.144 1406.89,526.75 1401.52,520.257Z" style="fill:rgb(196,50,52);"/>
            </g>
            <path id="Keyline" d="M1026.26,246.683C1031.96,247.921 1037.66,249.188 1043.35,250.493C1054.6,253.077 1065.82,255.8 1077.01,258.668C1108.34,266.7 1139.38,275.864 1170.02,286.228C1199.2,296.099 1228.01,307.06 1256.35,319.149C1284.69,331.245 1312.56,344.47 1339.83,358.834C1366.51,372.883 1392.61,388.02 1418.04,404.219C1443.79,420.629 1468.86,438.129 1493.13,456.657C1519.22,476.564 1544.4,497.658 1568.59,519.825C1578.5,528.906 1588.25,538.166 1597.83,547.597C1602.62,552.316 1607.37,557.079 1612.08,561.88C1612.26,563.364 1612.44,564.849 1612.63,566.333C1613.61,574.455 1614.55,582.582 1615.42,590.715C1617.23,607.478 1618.8,624.267 1620.11,641.076C1621.68,661.108 1622.89,681.168 1623.71,701.243C1624.34,716.698 1624.75,732.163 1624.91,747.63C1625.04,759.397 1625.03,771.166 1624.87,782.933C1623.86,858.148 1616.95,933.361 1602.7,1007.25C1600.31,1019.65 1597.72,1032.02 1594.91,1044.33C1592.16,1056.39 1589.21,1068.4 1586.05,1080.36C1585.16,1083.72 1584.25,1087.08 1583.33,1090.43L1024.83,1090.43L1024.83,246.374C1025.31,246.477 1025.78,246.58 1026.26,246.683ZM1037.33,1077.93L1573.76,1077.93C1574.11,1076.61 1574.46,1075.28 1574.81,1073.96C1576.67,1066.8 1578.47,1059.62 1580.19,1052.42C1583.51,1038.48 1586.56,1024.48 1589.35,1010.43C1591.3,1000.54 1593.13,990.62 1594.83,980.68C1607.01,909.244 1612.46,836.736 1612.5,764.295C1612.51,751.845 1612.35,739.396 1612.05,726.95C1611.68,712.194 1611.11,697.444 1610.32,682.705C1609.41,665.537 1608.22,648.385 1606.77,631.255C1605.6,617.442 1604.26,603.643 1602.76,589.862C1601.96,582.517 1601.1,575.177 1600.22,567.842L1600.19,567.619C1582.2,549.408 1563.6,531.808 1544.39,514.884C1522.22,495.345 1499.26,476.709 1475.55,459.057C1453.34,442.509 1430.48,426.824 1407.04,412.049C1382.89,396.825 1358.14,382.565 1332.87,369.293C1307.43,355.934 1281.47,343.576 1255.09,332.21C1227.55,320.347 1199.55,309.566 1171.19,299.831C1142.74,290.067 1113.94,281.355 1084.87,273.638C1074.33,270.838 1063.75,268.17 1053.14,265.629C1048.01,264.401 1042.88,263.206 1037.74,262.034L1037.33,261.941L1037.33,1077.93Z" style="fill-rule:nonzero;"/>
        </g>
        <g id="English-Flag" serif:id="English Flag" transform="matrix(1.1685,0,0,1.1685,-166.805,-167.441)">
            <path id="White-Background2" serif:id="White Background" d="M975.173,246.613L975.173,1090.43L418.347,1090.43C417.084,1086.6 415.834,1082.76 414.599,1078.92C369.27,910.719 364.743,731.93 391.425,558.776C547.565,399.689 743.005,296.862 975.173,246.613Z" style="fill:white;"/>
            <path id="Red-Cross" serif:id="Red Cross" d="M704.062,337.177C698.941,442.824 695.936,548.355 695.155,653.763C788.458,654.144 881.799,656.212 975.173,659.631L975.173,796.486C881.919,793.062 788.661,791.032 695.398,790.665C696.504,890.702 699.658,990.626 704.955,1090.43L568.278,1090.43C562.127,991.367 558.325,891.713 557.275,791.368C496.61,792.239 435.944,793.87 375.275,796.334C374.336,750.707 375.816,704.963 379.545,659.389C438.871,656.939 498.216,655.325 557.579,654.462C558.781,574.824 561.807,494.729 566.853,414.127C610.422,385.374 656.17,359.741 704.062,337.177Z" style="fill:rgb(196,50,52);"/>
            <path id="Keyline1" serif:id="Keyline" d="M975.173,1090.43L418.347,1090.43C417.874,1089 417.402,1087.56 416.932,1086.12C416.462,1084.68 415.994,1083.24 415.528,1081.8C415.5,1081.71 414.626,1079 414.599,1078.92C414.587,1078.88 414.081,1076.99 414.07,1076.94C413.718,1075.63 413.369,1074.32 413.022,1073C411.982,1069.05 410.965,1065.1 409.969,1061.14C407.564,1051.57 405.288,1041.97 403.14,1032.34C396.026,1000.45 390.32,968.243 385.958,935.86C379.717,889.535 376.224,842.849 375.27,796.118C374.223,744.803 376.233,693.434 381.046,642.338C382.779,623.93 384.877,605.557 387.329,587.232C388.146,581.125 389.002,575.023 389.897,568.928C390.394,565.542 390.906,562.158 391.425,558.776C392.34,557.844 393.256,556.914 394.173,555.985C398.757,551.353 403.376,546.757 408.038,542.205C417.323,533.14 426.77,524.24 436.373,515.513C460.216,493.845 485.029,473.246 510.724,453.811C534.964,435.476 559.988,418.179 585.699,401.97C611.147,385.927 637.265,370.95 663.947,357.057C691.301,342.814 719.246,329.71 747.663,317.73C776.156,305.718 805.122,294.835 834.45,285.039C864.864,274.88 895.667,265.888 926.745,257.993C937.435,255.278 948.157,252.692 958.909,250.232C964.323,248.994 969.745,247.79 975.173,246.613L975.173,1090.43ZM961.696,262.418C956.357,263.642 951.023,264.892 945.698,266.177C935.563,268.623 925.455,271.184 915.378,273.863C886.082,281.653 857.05,290.443 828.381,300.293C800.323,309.933 772.613,320.588 745.354,332.297C717.753,344.152 690.616,357.088 664.053,371.115C637.77,384.996 612.052,399.946 587.003,415.947C563.472,430.978 540.534,446.937 518.264,463.78C493.889,482.217 470.316,501.714 447.624,522.188C437.469,531.35 427.49,540.708 417.691,550.252C412.806,555.01 407.968,559.817 403.171,564.664C402.965,566.019 402.764,567.374 402.562,568.73C402.165,571.415 401.773,574.101 401.39,576.788C400.528,582.835 399.705,588.888 398.921,594.945C396.744,611.774 394.868,628.641 393.301,645.537C391.829,661.415 390.631,677.319 389.713,693.239C388.953,706.441 388.385,719.654 388.015,732.873C387.703,744.049 387.531,755.23 387.504,766.411C387.311,846.057 394.433,925.791 409.932,1003.94C413.073,1019.78 416.557,1035.55 420.392,1051.24C422.309,1059.08 424.317,1066.89 426.407,1074.69L426.591,1075.38C426.866,1076.23 427.14,1077.08 427.415,1077.93L962.672,1077.93L962.672,262.195C962.347,262.269 962.022,262.343 961.696,262.418Z" style="fill-rule:nonzero;"/>
        </g>
    </g>
</svg>
