<?xml version="1.0" encoding="UTF-8" standalone="no"?>
<!DOCTYPE svg PUBLIC "-//W3C//DTD SVG 1.1//EN" "http://www.w3.org/Graphics/SVG/1.1/DTD/svg11.dtd">
<svg width="100%" height="100%" viewBox="0 0 1024 1024" version="1.1" xmlns="http://www.w3.org/2000/svg" xmlns:xlink="http://www.w3.org/1999/xlink" xml:space="preserve" xmlns:serif="http://www.serif.com/" style="fill-rule:evenodd;clip-rule:evenodd;stroke-linejoin:round;stroke-miterlimit:2;">
    <g id="England-Rridah-Cup-Logo" serif:id="England Rridah Cup Logo" transform="matrix(0.407551,0,0,0.407551,103.757,104.016)">
        <path id="Grey-Background" serif:id="Grey Background" d="M1542.49,1592.99C1520.96,1619.56 1498.33,1645.23 1474.69,1669.94C1441.65,1704.48 1406.65,1737.13 1370.01,1767.82C1340.3,1792.72 1309.51,1816.33 1277.83,1838.66C1243.29,1863.01 1207.67,1885.84 1171.21,1907.2C1138.53,1926.34 1105.16,1944.32 1071.24,1961.17C1060.28,1966.61 1049.26,1971.94 1038.19,1977.15C1032.91,1979.64 1027.61,1982.1 1022.3,1984.54C1014.96,1987.91 1007.61,1991.26 1000.26,1994.62L979.691,1985.41C978.346,1984.81 977.003,1984.21 975.659,1983.6C968.977,1980.58 962.31,1977.52 955.666,1974.42C943.184,1968.58 930.774,1962.59 918.443,1956.44C883.096,1938.82 848.394,1919.9 814.497,1899.62C779.022,1878.4 744.428,1855.7 710.914,1831.5C676.528,1806.67 643.28,1780.26 611.385,1752.3C576.322,1721.57 542.902,1688.96 511.385,1654.6C493.057,1634.61 475.374,1614.04 458.379,1592.91L136.383,1541.71L20.227,1068.81L201.024,1040.67C197.925,1025.93 195.055,1011.14 192.411,996.321C190.172,983.769 188.095,971.188 186.177,958.583C172.483,868.587 166.917,777.406 168.587,686.407C168.864,671.327 169.339,656.251 170.009,641.184C170.783,623.8 171.816,606.427 173.102,589.073C174.646,568.255 176.555,547.464 178.819,526.712C180.768,508.853 182.981,491.023 185.452,473.229C186.647,464.624 187.906,456.029 189.217,447.441L191.682,431.394L203.071,419.804C203.893,418.97 204.715,418.136 205.538,417.303C211.706,411.072 217.924,404.89 224.202,398.77C236.707,386.58 249.437,374.621 262.386,362.903C295.4,333.025 329.839,304.722 365.562,278.141C398.401,253.705 432.322,230.726 467.182,209.272C501.2,188.336 536.111,168.853 571.764,150.842C608.316,132.376 645.647,115.458 683.593,100.062C722.169,84.411 761.379,70.332 801.064,57.758C841.618,44.91 882.666,33.633 924.06,23.827C938.494,20.408 952.97,17.168 967.483,14.101C974.79,12.557 982.107,11.061 989.432,9.601L999.99,7.507C1006.11,8.719 1012.24,9.922 1018.36,11.163C1026.67,12.848 1034.97,14.591 1043.26,16.391C1069.6,22.115 1095.82,28.425 1121.88,35.347C1160.46,45.595 1198.68,57.188 1236.42,70.2C1275.28,83.597 1313.61,98.499 1351.28,114.953C1394.33,133.765 1436.5,154.608 1477.55,177.481C1520.66,201.503 1562.52,227.764 1602.88,256.161C1644.97,285.779 1685.43,317.716 1724.05,351.743C1741.37,367.008 1758.33,382.692 1774.9,398.768C1780.56,404.257 1786.17,409.792 1791.75,415.371C1794.53,418.161 1797.3,420.964 1800.07,423.775L1811.91,435.839L1814.03,453.04C1814.2,454.438 1814.38,455.835 1814.55,457.232C1815.64,466.28 1816.69,475.332 1817.68,484.392C1819.56,501.619 1821.25,518.867 1822.73,536.133C1824.42,555.85 1825.85,575.59 1827,595.346C1827.89,610.785 1828.61,626.234 1829.15,641.689C1829.6,654.307 1829.92,666.93 1830.12,679.554C1831.57,770.653 1826.61,861.926 1813.73,952.148C1811.48,967.904 1808.99,983.625 1806.25,999.302C1803.84,1013.1 1801.24,1026.87 1798.44,1040.6L1983.17,1069.31L1867.02,1541.52L1542.49,1592.99Z" style="fill:rgb(147,149,152);"/>
        <g id="White-Background" serif:id="White Background" transform="matrix(1.37631,0,0,1.37631,-374.611,-628.962)">
            <path d="M463.349,1261.12C421.928,1107.43 417.791,944.051 442.173,785.825C590.016,635.192 776.419,539.757 998.765,495.777C1232.76,541.949 1415.35,643.548 1557.59,788.662C1579.15,962.422 1571.1,1120.48 1534.15,1261.12L1677.35,1261.12L1603.03,1552.75L1398.82,1552.75C1304.1,1685.27 1170.38,1792.05 998.813,1870.36C821.23,1791.03 690.703,1680.84 599.586,1552.75L393.189,1552.75L320.576,1261.12L463.349,1261.12Z" style="fill:white;"/>
        </g>
        <path id="Red-Triangle" serif:id="Red Triangle" d="M1000.27,1878.79C1210.21,1784.47 1364.69,1657.6 1480.61,1508.1L519.525,1508.1C637.434,1663.4 797.74,1786.92 1000.27,1878.79Z" style="fill:rgb(196,50,52);"/>
        <g id="Est-Date-White" serif:id="Est Date White" transform="matrix(1.1685,0,0,1.1685,-166.805,-167.441)">
            <path d="M1061.1,1565.04C1077.3,1565.04 1091.12,1554.73 1091.12,1527.42L1091.12,1522.55C1091.12,1495.25 1077.3,1485.17 1061.21,1485.17C1045.24,1485.17 1030.96,1495.14 1030.96,1522.89L1030.96,1527.76C1030.96,1554.16 1044.11,1565.04 1061.1,1565.04ZM1134.29,1565.04C1150.49,1565.04 1164.31,1554.73 1164.31,1527.42L1164.31,1522.55C1164.31,1495.25 1150.49,1485.17 1134.4,1485.17C1118.43,1485.17 1104.15,1495.14 1104.15,1522.89L1104.15,1527.76C1104.15,1554.16 1117.29,1565.04 1134.29,1565.04ZM1222.77,1538.75L1234.21,1538.75L1234.21,1549.06L1222.77,1549.06L1222.77,1564.92L1209.63,1564.92L1209.63,1549.06L1173.94,1549.06L1173.94,1540.91L1213.25,1485.96L1222.77,1485.96L1222.77,1538.75ZM848.923,1564.87C866.699,1564.87 874.398,1556.04 874.398,1542.8C874.398,1530 867.265,1525.25 856.056,1521.4L848.584,1519.02C839.979,1516.08 837.262,1512.9 837.262,1505.66C837.262,1498.41 842.47,1493.88 851.754,1493.88C860.132,1493.88 866.133,1496.04 870.548,1498.07L870.548,1490.49C866.359,1488.45 861.038,1486.3 852.093,1486.3C836.243,1486.3 828.43,1494.68 828.43,1506.45C828.43,1518 834.431,1523.43 845.074,1526.94L852.433,1529.55C861.604,1532.49 865.34,1535.66 865.34,1543.48C865.34,1551.74 860.245,1557.17 848.584,1557.17C840.545,1557.17 833.073,1555.14 827.298,1552.19L827.298,1559.78C832.393,1562.61 839.639,1564.87 848.923,1564.87ZM1020.09,1563.68L970.692,1563.68L970.692,1555.52L985.533,1539.89C996.296,1528.56 1004.91,1518.93 1004.91,1509.18C1004.91,1499.78 999.808,1496.16 989.952,1496.16C984.514,1496.16 978.169,1498.76 973.864,1501.37L971.598,1491.06C976.81,1488 984.74,1485.17 993.69,1485.17C1010.68,1485.17 1019.41,1493.32 1019.41,1507.37C1019.41,1521.19 1007.62,1533.54 998.109,1543.4L988.932,1552.8L1020.09,1552.8L1020.09,1563.68ZM951.021,1563.52L941.171,1563.52L941.171,1553.44L951.021,1553.44L951.021,1563.52ZM810.851,1495.13L774.734,1495.13L774.734,1520.6L802.586,1520.6L802.586,1528.19L774.734,1528.19L774.734,1555.93L811.19,1555.93L811.19,1563.52L765.789,1563.52L765.789,1487.54L810.851,1487.54L810.851,1495.13ZM940.236,1495.13L917.026,1495.13L917.026,1563.52L908.195,1563.52L908.195,1495.13L884.985,1495.13L884.985,1487.54L940.236,1487.54L940.236,1495.13ZM1061.1,1554.39C1050.56,1554.39 1045.46,1545.78 1045.46,1527.76L1045.46,1521.76C1045.46,1503.63 1050.68,1495.93 1061.21,1495.93C1071.41,1495.93 1076.73,1504.09 1076.73,1522.55L1076.73,1528.33C1076.73,1546.91 1071.52,1554.39 1061.1,1554.39ZM1134.29,1554.39C1123.75,1554.39 1118.65,1545.78 1118.65,1527.76L1118.65,1521.76C1118.65,1503.63 1123.86,1495.93 1134.4,1495.93C1144.6,1495.93 1149.92,1504.09 1149.92,1522.55L1149.92,1528.33C1149.92,1546.91 1144.71,1554.39 1134.29,1554.39ZM1209.74,1538.75L1209.74,1509.52L1189.12,1538.75L1209.74,1538.75Z" style="fill:white;"/>
        </g>
        <g id="Rridah-Cup-Black" serif:id="Rridah Cup Black" transform="matrix(1.37631,0,0,1.37631,-374.611,-628.962)">
            <path d="M1308.86,1375.7L1294.36,1375.7L1289.15,1351.85C1282.19,1349.06 1273.94,1347.66 1264.41,1347.66C1251.27,1347.66 1241.22,1352.83 1234.27,1363.15C1227.31,1373.47 1223.83,1387.91 1223.83,1406.47C1223.83,1425.16 1227.6,1439.04 1235.14,1448.11C1242.67,1457.17 1252.75,1461.71 1265.38,1461.71C1268.21,1461.71 1271.27,1461.36 1274.56,1460.66C1277.84,1459.96 1281.03,1458.95 1284.12,1457.63C1287.21,1456.3 1290.05,1454.91 1292.62,1453.44C1295.2,1451.98 1297.33,1450.55 1299,1449.15L1304.03,1444.97L1311.75,1458.57C1308.92,1461.64 1305.67,1464.5 1302,1467.15C1298.32,1469.8 1294.39,1472.14 1290.21,1474.16C1286.02,1476.18 1281.67,1477.75 1277.16,1478.87C1272.66,1479.98 1268.08,1480.54 1263.45,1480.54C1243.74,1480.54 1228.5,1474.37 1217.75,1462.02C1206.99,1449.68 1201.61,1431.65 1201.61,1407.93C1201.61,1396.07 1203.12,1385.33 1206.15,1375.7C1209.18,1366.08 1213.53,1357.88 1219.2,1351.12C1224.86,1344.35 1231.66,1339.12 1239.58,1335.42C1247.5,1331.73 1256.42,1329.88 1266.34,1329.88C1269.31,1329.88 1272.56,1330.12 1276.1,1330.61C1279.64,1331.1 1283.12,1331.76 1286.54,1332.6C1289.95,1333.44 1293.17,1334.31 1296.2,1335.21C1299.23,1336.12 1301.71,1336.99 1303.64,1337.83L1309.82,1340.34L1308.86,1375.7ZM1447.02,1348.71L1447.02,1418.81C1447.02,1439.32 1443.02,1454.73 1435.04,1465.06C1427.05,1475.38 1413.59,1480.54 1394.65,1480.54C1375.71,1480.54 1362.32,1475.76 1354.46,1466.21C1346.6,1456.65 1342.67,1441.9 1342.67,1421.95L1342.67,1348.71L1326.25,1344.53L1326.25,1333.02L1381.32,1331.97L1381.32,1344.53L1362.96,1348.71L1362.96,1421.95C1362.96,1437.3 1365.41,1447.93 1370.3,1453.86C1375.2,1459.79 1383.51,1462.76 1395.23,1462.76C1406.95,1462.76 1415.13,1459.51 1419.77,1453.03C1424.41,1446.54 1426.73,1435.13 1426.73,1418.81L1426.73,1348.71L1408.37,1344.53L1408.37,1333.02L1463.44,1331.97L1463.44,1344.53L1447.02,1348.71ZM468.294,1478.45L415.155,1478.45L415.155,1465.89L431.579,1461.71L431.579,1348.71L415.155,1344.53L415.155,1333.02L451.869,1331.97L473.124,1331.97C486.78,1331.97 497.44,1335.32 505.104,1342.02C512.769,1348.71 516.602,1357.92 516.602,1369.64C516.602,1390.14 508.228,1403.75 491.482,1410.44C494.573,1413.37 498.438,1419.65 503.075,1429.28L518.341,1462.55L532.06,1465.89L532.06,1478.45L503.075,1478.45L486.651,1439.74C482.142,1429.28 478.245,1422.47 474.96,1419.34C471.675,1416.2 466.877,1414.63 460.564,1414.63L451.869,1414.63L451.869,1461.71L468.294,1465.89L468.294,1478.45ZM593.895,1478.45L540.756,1478.45L540.756,1465.89L557.181,1461.71L557.181,1348.71L540.756,1344.53L540.756,1333.02L577.47,1331.97L598.726,1331.97C612.381,1331.97 623.041,1335.32 630.706,1342.02C638.371,1348.71 642.203,1357.92 642.203,1369.64C642.203,1390.14 633.83,1403.75 617.083,1410.44C620.174,1413.37 624.039,1419.65 628.677,1429.28L643.942,1462.55L657.662,1465.89L657.662,1478.45L628.677,1478.45L612.252,1439.74C607.743,1429.28 603.846,1422.47 600.561,1419.34C597.276,1416.2 592.478,1414.63 586.166,1414.63L577.47,1414.63L577.47,1461.71L593.895,1465.89L593.895,1478.45ZM719.496,1478.45L666.357,1478.45L666.357,1465.89L682.782,1461.71L682.782,1348.71L666.357,1344.53L666.357,1333.02L719.496,1331.97L719.496,1344.53L703.071,1348.71L703.071,1461.71L719.496,1465.89L719.496,1478.45ZM796.789,1478.45L738.819,1478.45L738.819,1465.89L755.244,1461.71L755.244,1348.71L738.819,1344.53L738.819,1333.02L775.534,1331.97L799.688,1331.97C809.22,1331.97 817.755,1333.54 825.291,1336.68C832.827,1339.82 839.204,1344.42 844.421,1350.49C849.638,1356.56 853.632,1364.02 856.401,1372.88C859.171,1381.74 860.556,1391.89 860.556,1403.33C860.556,1414.77 859.042,1425.09 856.015,1434.3C852.988,1443.5 848.704,1451.39 843.165,1457.94C837.626,1464.5 830.927,1469.56 823.069,1473.11C815.211,1476.67 806.451,1478.45 796.789,1478.45ZM912.729,1478.45L859.59,1478.45L859.59,1465.89L875.435,1461.92L919.492,1333.02L938.815,1331.97L981.713,1461.92L997.751,1465.89L997.751,1478.45L941.714,1478.45L941.714,1465.89L959.684,1461.92L952.341,1438.69L902.101,1438.69L894.565,1461.92L912.729,1465.89L912.729,1478.45ZM1058.62,1478.45L1003.55,1478.45L1003.55,1465.89L1019.97,1461.71L1019.97,1348.71L1003.55,1344.53L1003.55,1333.02L1058.62,1331.97L1058.62,1344.53L1040.26,1348.71L1040.26,1394.75L1105,1394.75L1105,1348.71L1086.64,1344.53L1086.64,1333.02L1141.71,1331.97L1141.71,1344.53L1125.29,1348.71L1125.29,1461.71L1141.71,1465.89L1141.71,1478.45L1086.64,1478.45L1086.64,1465.89L1105,1461.71L1105,1411.49L1040.26,1411.49L1040.26,1461.71L1058.62,1465.89L1058.62,1478.45ZM1532.04,1478.45L1478.9,1478.45L1478.9,1465.89L1495.33,1461.71L1495.33,1348.71L1478.9,1344.53L1478.9,1333.02L1515.62,1331.97L1535.9,1331.97C1550.2,1331.97 1561.18,1335.81 1568.85,1343.48C1576.52,1351.15 1580.35,1361.62 1580.35,1374.87C1580.35,1390.91 1575.81,1403.12 1566.73,1411.49C1557.64,1419.86 1544.79,1424.04 1528.17,1424.04L1515.62,1424.04L1515.62,1461.71L1532.04,1465.89L1532.04,1478.45ZM775.534,1461.71L797.755,1461.71C810.509,1461.71 820.46,1456.97 827.61,1447.48C834.759,1437.99 838.334,1423.69 838.334,1404.58C838.334,1385.33 834.856,1371.21 827.9,1362.21C820.943,1353.21 811.217,1348.71 798.721,1348.71L775.534,1348.71L775.534,1461.71ZM927.608,1358.96L907.318,1421.95L947.124,1421.95L927.608,1358.96ZM1534.94,1348.71L1515.62,1348.71L1515.62,1407.3L1528.17,1407.3C1549.43,1407.3 1560.06,1397.54 1560.06,1378.01C1560.06,1369.36 1557.87,1362.31 1553.49,1356.87C1549.11,1351.43 1542.92,1348.71 1534.94,1348.71ZM451.869,1348.71L451.869,1398.93L466.361,1398.93C475.765,1398.93 483.108,1396.63 488.39,1392.03C493.671,1387.42 496.312,1381.36 496.312,1373.82C496.312,1366.15 494.058,1360.05 489.549,1355.51C485.04,1350.98 479.243,1348.71 472.158,1348.71L451.869,1348.71ZM577.47,1348.71L577.47,1398.93L591.962,1398.93C601.366,1398.93 608.709,1396.63 613.991,1392.03C619.273,1387.42 621.914,1381.36 621.914,1373.82C621.914,1366.15 619.659,1360.05 615.15,1355.51C610.642,1350.98 604.845,1348.71 597.759,1348.71L577.47,1348.71Z"/>
        </g>
        <g id="New">
            <g id="Welsh-Flag-1-3" serif:id="Welsh Flag 1/3" transform="matrix(1.1685,0,0,1.1685,-166.805,-167.441)">
                <g id="White-Background1" serif:id="White Background" transform="matrix(2.09985,0,0,2.09985,-75.1225,-75.1225)">
                    <path d="M623.491,183.373C694.191,211.839 753.601,252.462 803.487,303.356C814.722,393.912 810.527,476.283 791.272,549.582C790.79,551.415 790.298,553.243 789.796,555.066L623.491,555.066L623.491,183.373Z" style="fill:white;"/>
                </g>
                <g id="Green-Background" serif:id="Green Background" transform="matrix(2.09985,0,0,2.09985,-75.1225,-75.1225)">
                    <path d="M623.491,382.275L809.434,382.275C810.873,442.303 804.777,498.173 791.272,549.582C790.79,551.415 790.298,553.243 789.796,555.066L623.491,555.066L623.491,382.275Z" style="fill:rgb(1,159,98);"/>
                </g>
                <g id="Welsh-Dragon" serif:id="Welsh Dragon">
                    <g id="Black-Dragon" serif:id="Black Dragon" transform="matrix(2.09985,0,0,2.09985,-75.1225,-75.1225)">
                        <path d="M805.861,470.03C801.958,467.397 795.413,469.019 790.586,470.64C780.318,474.354 753.647,468.969 759.78,481.783C754.381,479.753 750.359,476.346 751.26,468.018C747.455,464.039 748.389,460.473 751.477,457.094C751.488,451.143 756.647,449.93 764.149,450.87C770.994,451.64 776.153,458.251 784.682,453.066C792.71,448.362 795.211,440.499 796.923,432.186C790.295,432.798 783.668,431.724 777.04,426.943C769.645,432.518 761.818,436.155 753.225,436.337C752.956,442.907 749.573,447.839 743.612,451.413C748.882,439.58 738.648,439.027 736.839,449.009C735.126,456.036 721.393,467.445 731.364,467.393C744.825,467.551 748.644,474.459 739.223,482.556C738.005,472.225 725.102,475.935 714.335,477.85C700.454,480.663 677.7,475.05 689.209,485.278C681.151,483.357 675.149,478.156 679.814,472.475C673.235,467.286 673.773,462.584 679.065,459.491C673.626,450.71 680.506,446.125 691.393,449.665C701.722,452.495 711.79,466.103 718.705,453.38C721.903,446.532 723.609,439.413 723.511,431.968C716.378,429.226 712.839,421.284 706.039,427.611C699.913,434.278 692.326,435.551 684.403,435.027C702.938,418.588 682.488,403.161 681.249,387.284C677.218,398.505 664.309,396.13 664.208,383.982C669.652,388.783 673.608,385.11 675.007,375.381C670.471,364.318 659.362,361.365 653.815,370.791C649.756,357.737 657.572,354.945 666.924,357.246C665.796,352.137 661.29,350.051 654.47,350.036C662.296,344.28 669.198,344.682 675.226,350.91C675.058,346.49 673.091,343.868 669.327,343.044C679.522,339.518 684.312,344.676 684.621,357.028C685.393,364.779 693.244,366.799 694.016,376.909C694.327,384.541 696.583,390.076 700.789,393.515C700.194,363.708 717.347,356.26 720.234,337.801C712.453,333.646 708.489,346.007 698.573,344.549C701.757,342.898 703.442,340.649 703.628,337.801C698.323,339.881 692.829,340.651 686.924,338.538C693.77,336.735 697.843,333.601 699.684,326.718C695.601,328.794 690.973,330.279 683.555,328.49C683.237,331.925 683.792,335.187 684.742,338.368C671.152,328.342 666.13,313.629 669.865,295.462C673.753,307.696 680.591,316.429 692.588,319.034L687.507,321.999C690.526,323.384 693.468,323.437 696.333,323.014C697.593,308.036 683.411,313.823 682.124,299.896C694.126,308.248 704.668,303.342 715.209,307.65C710.7,301.742 721.742,299.495 726.482,302.087C740.858,308.873 735.797,306.331 745.791,303.679C752.088,301.825 756.39,300.84 759.536,293.135C761.305,303.143 757.255,310.342 748.389,314.919C754.658,317.939 759.438,324.103 760.744,331.424C757.747,329.297 754.927,327.192 751.229,327.218C757.108,333.342 759.718,341.444 758.314,350.875C755.983,346.846 753.432,343.616 750.107,343.233C755.49,348.973 757.746,356.704 755.848,367.078C753.225,362.862 750.126,360.054 747.172,359.147C746.979,364.088 747.613,368.698 749.074,372.977C767.207,368.315 757.782,336.303 769.394,319.229C775.467,312.543 786.327,311.543 799.815,310.9C801.524,312.399 803.218,313.912 804.899,315.44C810.036,362.245 810.987,406.814 807.806,449.032C805.368,451.128 802.611,453.112 799.545,454.908C794.932,458.891 797.809,461.974 804.133,461.463C805.073,461.351 805.947,461.3 806.759,461.305C806.48,464.224 806.181,467.131 805.861,470.03ZM680.557,472.516C680.66,469.796 681.834,468.441 683.572,468.151C685.31,467.86 687.612,468.636 689.97,470.176C686.164,470.289 683.027,471.067 680.557,472.516ZM681.329,459.276C682.219,457.152 683.552,456.427 685.015,456.714C686.478,457.001 688.071,458.299 689.481,460.22C686.433,459.178 683.715,458.863 681.329,459.276ZM700.737,326.166C706.581,328.591 712.425,324.809 718.268,319.229C710.749,315.793 703.818,316.705 697.586,322.801C702.709,321.819 707.585,319.694 712.212,321.438C707.604,322.028 704.311,324.24 700.737,326.166Z"/>
                    </g>
                    <g id="Red-Dragon" serif:id="Red Dragon" transform="matrix(2.09985,0,0,2.09985,-75.1225,-75.1225)">
                        <path d="M737.186,394.096C720.969,407.221 734.383,417.099 724.343,448.861C719.828,459.32 712.905,465.192 704.186,460.099C697.986,456.103 678.736,441.649 680.405,457.612C685.533,449.097 690.951,461.597 698.477,462.774C692.019,464.768 673.469,454.672 679.197,469.62C683.806,460.99 691.1,470.014 698.3,469.731C694.615,473.345 673.372,471.392 683.505,480.571C681.88,476.311 693.689,475.794 700.796,476.62C713.618,477.299 734.966,468.781 740.851,477.552C745.571,466.971 731.003,471.457 726.128,468.84C722.476,466.771 723.433,463.742 726.484,460.278C736.805,450.54 733.827,441.223 741.112,437.979C745.044,436.498 747.441,438.28 749.139,441.547C753.177,423.849 745.907,420.601 749.946,413.898C752.599,409.485 755.846,406.598 760.734,404.978C757.404,402.777 751.876,396.913 749.488,399.844C746.49,403.761 746.215,406.911 746.463,411.284C741.877,407.049 739.257,400.847 737.186,394.096ZM806.178,467.096C801.67,465.378 795.776,467.012 792.237,467.941C782.838,471.374 775.887,470.301 767.004,471.031C762.241,471.674 757.735,469.615 756.191,476.953C746.965,462.664 765.675,469.615 770.737,466.268C764.215,467.254 754.602,458.586 753.1,465.752C747.264,453.351 764.086,462.063 769.579,460.216C764.515,459.359 759.966,453.351 754.001,456.998C756.338,450.27 766.33,453.363 774.6,457.513C786.811,461.225 797.067,445.794 800.346,437.687C802.771,428.772 801.571,421.671 795.069,417.219C800.137,415.881 804.725,415.652 809.442,415.921C809.206,425.713 808.759,435.387 808.1,444.948C804.726,448.592 800.437,452.017 795.198,455.195C791.947,458.489 793.814,463.618 800.217,463.435C802.644,463.208 804.78,463.163 806.56,463.35L806.373,465.213C806.308,465.836 806.244,466.46 806.179,467.083L806.178,467.096ZM676.369,345.113C684.914,348.012 680.392,356.759 683.213,362.27C686.244,368.84 691.016,366.949 691.808,381.98C692.354,390.998 695.887,397.526 702.407,401.566C703.862,408.454 706.951,414.798 711.394,420.691C703.861,420.93 702.801,429.134 693.651,430.369C699.807,411.272 679.327,396.294 683.655,381.593C679.703,381.35 678.089,399.254 667.577,389.405C672.658,390.601 676.617,385.793 677.715,376.413C676.736,370.524 665.553,358.536 655.861,364.468C659.694,350.939 670.122,365.783 676.318,364.574C667.881,361.876 668.899,350.84 662.825,348.764C674.644,348.131 674.146,358.451 678.623,359.311C673.931,354.082 680.937,350.469 676.369,345.113ZM809.504,413.067C808.212,412.901 806.943,412.877 805.705,413.022C805.3,413.07 804.909,413.12 804.513,413.169C803.675,409.322 801.938,406.441 799.447,404.37C800.191,407.326 800.768,410.344 800.247,413.759C796.892,414.274 793.926,414.857 791.287,415.483C789.942,411.539 787.769,408.775 784.907,406.991C786.095,409.942 787.112,412.981 786.965,416.635C783.885,417.55 781.346,418.53 779.195,419.528C777.373,415.517 774.926,411.597 771.312,410.98C773.329,413.581 774.85,417.774 775.164,421.65C771.347,423.925 769.012,426.117 766.398,427.664C766.465,422.302 763.904,414.919 760.186,413.917C761.988,416.548 762.904,424.831 760.996,429.634C759.051,429.942 756.715,429.963 753.704,429.606C754.084,424.585 749.762,418.383 754.591,414.164C770.279,402.118 790.864,400.426 809.621,404.523C809.6,407.383 809.561,410.233 809.504,413.067ZM797.517,429.719C798.119,423.721 794.952,420.64 790.899,418.903C787.021,420.216 783.364,422.021 780.186,424.909C781.563,425.982 783.03,426.836 784.573,427.509C787.821,426.48 790.161,424.745 792.225,422.796C792.099,424.838 791.428,426.941 789.981,429.131C792.389,429.579 794.917,429.739 797.517,429.719ZM730.668,318.653C735.702,325.437 733.232,335.004 721.693,334.011C710.98,332.658 710.525,338.977 704.745,341.775C706.129,339.143 705.934,336.655 705.021,334.233C702.345,336.68 698.951,337.55 695.229,337.701C698.986,335.182 700.538,331.899 701.372,328.754C710.29,332.87 717.8,316.629 724.839,322.468C718.008,315.19 709.567,313.088 698.767,318.547C698.252,316.206 697.344,314.127 695.575,312.621C697.806,312.099 700.143,312.201 702.583,312.929C697.942,309.091 692.675,312.924 686.078,304.936C696.132,309.628 704.934,305.003 716.319,311.262C727.137,316.265 724.995,310.215 730.487,309.318C725.579,307.081 722.626,310.481 719.753,308.479C715.422,305.54 720.174,302.861 723.674,303.497C727.701,304.489 731.729,306.341 735.755,308.585C734.525,310.07 733.712,311.66 733.317,313.354C745.628,302.032 745.726,309.657 756.392,302.563C755.251,307.029 751.003,312.63 742.552,315.763C758.103,331.733 737.57,353.475 742.585,374.639C724.415,380.04 721.134,398.708 724.326,424.013C721.207,421.151 718.544,418.376 716.273,415.682C720.679,411.495 721.838,405.918 722.057,399.937C719.685,405.427 716.547,409.29 711.77,409.671C709.64,406.423 708.085,403.29 707.009,400.259C712.307,397.605 715.072,392.735 717.094,387.212C713.436,391.363 709.586,393.988 705.34,393.476C704.815,389.703 704.983,386.082 705.619,382.575C709.379,380.978 712.394,378.077 715.141,374.705C712.226,376.358 709.428,377.458 706.821,377.654C708.096,373.457 709.932,369.411 711.92,365.448C714.131,364.44 716.234,363.058 718.282,361.492C716.592,361.981 714.969,362.327 713.433,362.487C715.001,359.469 716.596,356.49 718.035,353.52C720.142,352.524 722.149,351.194 724.109,349.697C722.453,350.175 720.863,350.518 719.357,350.682C720.464,348.194 721.42,345.706 722.114,343.198C723.351,342.45 724.56,341.603 725.75,340.692C724.654,341.009 723.588,341.265 722.554,341.451C722.834,340.209 723.045,338.959 723.172,337.704L728.657,336.693C731.062,350.26 713.261,365.27 721.583,383.024C718.961,352.311 744.337,343.537 735.361,324.226C734.11,321.847 732.545,319.988 730.668,318.653ZM771.97,401.351C769.351,397.21 766.23,395.237 764.399,395.615C762.568,395.993 762.025,398.721 764.564,403.982L771.97,401.351ZM809.126,372.291C804.42,376.004 801.114,381.501 800.733,388.609C792.324,382.349 777.208,383.486 773.917,399.092C766.427,389.657 757.159,389.5 760.508,401.042C751.407,394.757 748.465,393.305 744.419,402.261C742.231,398.424 741.058,393.862 740.528,389.695C734.403,389.8 730.098,394.001 726.622,400.067C726.569,385.669 736.134,382.969 745.638,384.708C745.136,387.308 746.043,390.157 746.865,392.757C749.663,387.739 753.948,385.205 755.877,380.808C756.71,383.239 756.385,386.002 754.902,389.097C760.37,383.216 763.597,376.744 765.924,370.171C774.373,379.736 771.266,386.962 772.969,394.484C774.65,379.446 773.696,374.076 767.707,364.597C769.098,359.834 770.216,355.093 771.567,350.558C787.67,359.832 788.802,364.924 799.998,382.075C792.936,366.921 790.584,358.457 773.381,345.095C774.164,343.009 775.047,340.989 776.09,339.054C788.475,340.66 798.153,344.265 807.933,349.604C808.447,357.227 808.845,364.788 809.126,372.291ZM809.383,380.262C809.569,387.24 809.655,394.163 809.638,401.024C798.362,398.856 787.052,398.721 777.181,400.015C778.036,390.632 786.943,384.811 804.564,394.082C803.898,389.747 804.583,385.411 806.618,381.075C807.549,380.778 808.471,380.507 809.383,380.262ZM805.202,318.233C795.628,319.261 787.153,320.922 780.986,324.98C766.224,333.21 768.094,363.658 758.669,381.322C758.267,378.914 758.072,376.546 757.339,374.469C754.908,379.9 751.359,382.849 748.43,386.791C748.147,385.446 748.028,384.102 748.075,382.758C744.257,381.602 739.955,381.498 736.134,382.169C770.008,374.609 759.914,349.558 770.747,325.955C774.125,318.681 784.049,315.251 802.755,313.505C803.472,314.147 804.187,314.792 804.899,315.44C805.002,316.375 805.103,317.31 805.202,318.233ZM749.485,346.423C748.5,349.492 747.989,352.563 747.241,355.632C750.114,356.896 752.396,358.507 754.326,360.711C754.187,355.062 752.77,350.182 749.485,346.423ZM807.699,346.239C800.216,341.36 791.445,337.314 779.183,334.251C779.521,333.811 779.87,333.377 780.234,332.951C789.093,331.528 797.867,331.448 806.582,332.349C806.996,336.999 807.369,341.626 807.699,346.239ZM751.255,331.074C751.255,334.34 750.94,337.606 750.311,340.874C753.226,340.749 755.036,342.562 756.687,344.652C755.664,339.024 753.853,334.497 751.255,331.074ZM687.672,319.67L682.716,321.55C691.689,327.761 699.55,322.86 706.387,322.063C700.006,324.057 692.685,330.494 681.862,325.823C681.263,327.845 680.95,330.722 681.263,332.745C674.63,326.057 670.55,315.277 671.094,304.118C674.014,311.61 679.397,317.733 687.672,319.67ZM805.49,320.988C805.741,323.422 805.98,325.849 806.209,328.278C800.341,327.326 794.026,326.82 787.128,326.899C792.1,323.386 798.46,321.888 805.49,320.988ZM747.36,316.668C751.354,318.478 755.053,322.021 757.159,326.35C755.094,325.208 752.889,324.342 750.192,324.461C750.192,321.549 749.248,318.95 747.36,316.668Z" style="fill:rgb(196,50,52);"/>
                    </g>
                </g>
                <g id="Keyline" transform="matrix(2.09985,0,0,2.09985,-75.1225,-75.1225)">
                    <path d="M623.491,183.373C694.191,211.839 753.601,252.462 803.487,303.356C814.722,393.912 810.527,476.283 791.272,549.582C790.79,551.415 790.298,553.243 789.796,555.066L623.491,555.066L623.491,183.373ZM628.491,190.831L628.491,550.066L785.969,550.066L786.436,548.311C805.425,476.026 809.622,394.847 798.729,305.653C751.188,257.451 694.954,218.629 628.491,190.831Z"/>
                </g>
            </g>
            <g id="England-Flag-2-3" serif:id="England Flag 2/3" transform="matrix(1.1685,0,0,1.1685,-166.805,-167.441)">
                <g id="White-Background2" serif:id="White Background" transform="matrix(2.09985,0,0,2.09985,-75.1225,-75.1225)">
                    <path d="M592.645,555.066L235.002,555.066C234.401,553.242 233.806,551.413 233.218,549.582C211.631,469.482 209.475,384.338 222.181,301.878C299.231,223.374 396.376,173.638 512.253,150.718C540.459,156.283 567.232,163.394 592.645,171.975L592.645,555.066Z" style="fill:white;"/>
                </g>
                <g id="Red-Cross" serif:id="Red Cross" transform="matrix(2.09985,0,0,2.09985,-75.1225,-75.1225)">
                    <path d="M456.476,339.786L592.645,339.786L592.645,425.36L456.476,425.36L456.476,555.066L371.427,555.066L371.427,425.36L214.791,425.36C213.721,396.87 214.658,368.242 217.42,339.786L371.427,339.786L371.427,196.178C398.363,183.511 426.725,172.88 456.476,164.249L456.476,339.786Z" style="fill:rgb(196,50,52);"/>
                </g>
                <g id="Keyline1" serif:id="Keyline" transform="matrix(2.09985,0,0,2.09985,-75.1225,-75.1225)">
                    <path d="M592.645,555.066L235.002,555.066C234.401,553.242 233.806,551.413 233.218,549.582C211.631,469.482 209.475,384.338 222.181,301.878C299.231,223.374 396.376,173.638 512.253,150.718C540.459,156.283 567.232,163.394 592.645,171.975L592.645,555.066ZM512.254,155.816C398.413,178.5 302.831,227.322 226.882,304.232C214.557,385.47 216.775,469.281 238.016,548.17L238.629,550.066L587.645,550.066L587.645,175.577C563.742,167.667 538.631,161.059 512.254,155.816Z"/>
                </g>
            </g>
        </g>
    </g>
</svg>
