<?xml version="1.0" encoding="UTF-8" standalone="no"?>
<!DOCTYPE svg PUBLIC "-//W3C//DTD SVG 1.1//EN" "http://www.w3.org/Graphics/SVG/1.1/DTD/svg11.dtd">
<svg width="100%" height="100%" viewBox="0 0 2000 2000" version="1.1" xmlns="http://www.w3.org/2000/svg" xmlns:xlink="http://www.w3.org/1999/xlink" xml:space="preserve" xmlns:serif="http://www.serif.com/" style="fill-rule:evenodd;clip-rule:evenodd;stroke-linejoin:round;stroke-miterlimit:2;">
    <g id="S-I-Rridah-Cup-Logo" serif:id="S&amp;I Rridah Cup Logo" transform="matrix(0.855795,0,0,0.855795,142.751,143.295)">
        <path id="Grey-Background" serif:id="Grey Background" d="M1542.49,1592.99C1520.96,1619.56 1498.33,1645.23 1474.69,1669.94C1441.65,1704.48 1406.65,1737.13 1370.01,1767.82C1340.3,1792.72 1309.51,1816.33 1277.83,1838.66C1243.29,1863.01 1207.67,1885.84 1171.21,1907.2C1138.53,1926.34 1105.16,1944.32 1071.24,1961.17C1060.28,1966.61 1049.26,1971.94 1038.19,1977.15C1032.91,1979.64 1027.61,1982.1 1022.3,1984.54C1014.96,1987.91 1007.61,1991.26 1000.26,1994.62L979.691,1985.41C978.346,1984.81 977.003,1984.21 975.659,1983.6C968.977,1980.58 962.31,1977.52 955.666,1974.42C943.184,1968.58 930.774,1962.59 918.443,1956.44C883.096,1938.82 848.394,1919.9 814.497,1899.62C779.022,1878.4 744.428,1855.7 710.914,1831.5C676.528,1806.67 643.28,1780.26 611.385,1752.3C576.322,1721.57 542.902,1688.96 511.385,1654.6C493.057,1634.61 475.374,1614.04 458.379,1592.91L136.383,1541.71L20.227,1068.81L201.024,1040.67C197.925,1025.93 195.055,1011.14 192.411,996.321C190.172,983.769 188.095,971.188 186.177,958.583C172.483,868.587 166.917,777.406 168.587,686.407C168.864,671.327 169.339,656.251 170.009,641.184C170.783,623.8 171.816,606.427 173.102,589.073C174.646,568.255 176.555,547.464 178.819,526.712C180.768,508.853 182.981,491.023 185.452,473.229C186.647,464.624 187.906,456.029 189.217,447.441L191.682,431.394L203.071,419.804C203.893,418.97 204.715,418.136 205.538,417.303C211.706,411.072 217.924,404.89 224.202,398.77C236.707,386.58 249.437,374.621 262.386,362.903C295.4,333.025 329.839,304.722 365.562,278.141C398.401,253.705 432.322,230.726 467.182,209.272C501.2,188.336 536.111,168.853 571.764,150.842C608.316,132.376 645.647,115.458 683.593,100.062C722.169,84.411 761.379,70.332 801.064,57.758C841.618,44.91 882.666,33.633 924.06,23.827C938.494,20.408 952.97,17.168 967.483,14.101C974.79,12.557 982.107,11.061 989.432,9.601L999.99,7.507C1006.11,8.719 1012.24,9.922 1018.36,11.163C1026.67,12.848 1034.97,14.591 1043.26,16.391C1069.6,22.115 1095.82,28.425 1121.88,35.347C1160.46,45.595 1198.68,57.188 1236.42,70.2C1275.28,83.597 1313.61,98.499 1351.28,114.953C1394.33,133.765 1436.5,154.608 1477.55,177.481C1520.66,201.503 1562.52,227.764 1602.88,256.161C1644.97,285.779 1685.43,317.716 1724.05,351.743C1741.37,367.008 1758.33,382.692 1774.9,398.768C1780.56,404.257 1786.17,409.792 1791.75,415.371C1794.53,418.161 1797.3,420.964 1800.07,423.775L1811.91,435.839L1814.03,453.04C1814.2,454.438 1814.38,455.835 1814.55,457.232C1815.64,466.28 1816.69,475.332 1817.68,484.392C1819.56,501.619 1821.25,518.867 1822.73,536.133C1824.42,555.85 1825.85,575.59 1827,595.346C1827.89,610.785 1828.61,626.234 1829.15,641.689C1829.6,654.307 1829.92,666.93 1830.12,679.554C1831.57,770.653 1826.61,861.926 1813.73,952.148C1811.48,967.904 1808.99,983.625 1806.25,999.302C1803.84,1013.1 1801.24,1026.87 1798.44,1040.6L1983.17,1069.31L1867.02,1541.52L1542.49,1592.99Z" style="fill:rgb(147,149,152);"/>
        <g id="White-Background" serif:id="White Background" transform="matrix(1.37631,0,0,1.37631,-374.611,-628.962)">
            <path d="M463.349,1261.12C421.928,1107.43 417.791,944.051 442.173,785.825C590.016,635.192 776.419,539.757 998.765,495.777C1232.76,541.949 1415.35,643.548 1557.59,788.662C1579.15,962.422 1571.1,1120.48 1534.15,1261.12L1677.35,1261.12L1603.03,1552.75L1398.82,1552.75C1304.1,1685.27 1170.38,1792.05 998.813,1870.36C821.23,1791.03 690.703,1680.84 599.586,1552.75L393.189,1552.75L320.576,1261.12L463.349,1261.12Z" style="fill:white;"/>
        </g>
        <path id="Blue-Triangle" serif:id="Blue Triangle" d="M1000.27,1878.79C1210.21,1784.47 1364.69,1657.6 1480.61,1508.1L519.525,1508.1C637.434,1663.4 797.74,1786.92 1000.27,1878.79Z" style="fill:rgb(18,78,145);"/>
        <g id="Est-Date-Yellow" serif:id="Est Date Yellow" transform="matrix(1.1685,0,0,1.1685,-166.805,-167.441)">
            <path d="M1061.1,1565.04C1077.3,1565.04 1091.12,1554.73 1091.12,1527.42L1091.12,1522.55C1091.12,1495.25 1077.3,1485.17 1061.21,1485.17C1045.24,1485.17 1030.96,1495.14 1030.96,1522.89L1030.96,1527.76C1030.96,1554.16 1044.11,1565.04 1061.1,1565.04ZM1134.29,1565.04C1150.49,1565.04 1164.31,1554.73 1164.31,1527.42L1164.31,1522.55C1164.31,1495.25 1150.49,1485.17 1134.4,1485.17C1118.43,1485.17 1104.15,1495.14 1104.15,1522.89L1104.15,1527.76C1104.15,1554.16 1117.29,1565.04 1134.29,1565.04ZM1222.77,1538.75L1234.21,1538.75L1234.21,1549.06L1222.77,1549.06L1222.77,1564.92L1209.63,1564.92L1209.63,1549.06L1173.94,1549.06L1173.94,1540.91L1213.25,1485.96L1222.77,1485.96L1222.77,1538.75ZM848.923,1564.87C866.699,1564.87 874.398,1556.04 874.398,1542.8C874.398,1530 867.265,1525.25 856.056,1521.4L848.584,1519.02C839.979,1516.08 837.262,1512.9 837.262,1505.66C837.262,1498.41 842.47,1493.88 851.754,1493.88C860.132,1493.88 866.133,1496.04 870.548,1498.07L870.548,1490.49C866.359,1488.45 861.038,1486.3 852.093,1486.3C836.243,1486.3 828.43,1494.68 828.43,1506.45C828.43,1518 834.431,1523.43 845.074,1526.94L852.433,1529.55C861.604,1532.49 865.34,1535.66 865.34,1543.48C865.34,1551.74 860.245,1557.17 848.584,1557.17C840.545,1557.17 833.073,1555.14 827.298,1552.19L827.298,1559.78C832.393,1562.61 839.639,1564.87 848.923,1564.87ZM1020.09,1563.68L970.692,1563.68L970.692,1555.52L985.533,1539.89C996.296,1528.56 1004.91,1518.93 1004.91,1509.18C1004.91,1499.78 999.808,1496.16 989.952,1496.16C984.514,1496.16 978.169,1498.76 973.864,1501.37L971.598,1491.06C976.81,1488 984.74,1485.17 993.69,1485.17C1010.68,1485.17 1019.41,1493.32 1019.41,1507.37C1019.41,1521.19 1007.62,1533.54 998.109,1543.4L988.932,1552.8L1020.09,1552.8L1020.09,1563.68ZM951.021,1563.52L941.171,1563.52L941.171,1553.44L951.021,1553.44L951.021,1563.52ZM810.851,1495.13L774.734,1495.13L774.734,1520.6L802.586,1520.6L802.586,1528.19L774.734,1528.19L774.734,1555.93L811.19,1555.93L811.19,1563.52L765.789,1563.52L765.789,1487.54L810.851,1487.54L810.851,1495.13ZM940.236,1495.13L917.026,1495.13L917.026,1563.52L908.195,1563.52L908.195,1495.13L884.985,1495.13L884.985,1487.54L940.236,1487.54L940.236,1495.13ZM1061.1,1554.39C1050.56,1554.39 1045.46,1545.78 1045.46,1527.76L1045.46,1521.76C1045.46,1503.63 1050.68,1495.93 1061.21,1495.93C1071.41,1495.93 1076.73,1504.09 1076.73,1522.55L1076.73,1528.33C1076.73,1546.91 1071.52,1554.39 1061.1,1554.39ZM1134.29,1554.39C1123.75,1554.39 1118.65,1545.78 1118.65,1527.76L1118.65,1521.76C1118.65,1503.63 1123.86,1495.93 1134.4,1495.93C1144.6,1495.93 1149.92,1504.09 1149.92,1522.55L1149.92,1528.33C1149.92,1546.91 1144.71,1554.39 1134.29,1554.39ZM1209.74,1538.75L1209.74,1509.52L1189.12,1538.75L1209.74,1538.75Z" style="fill:rgb(251,208,0);"/>
        </g>
        <g id="Rridah-Cup-Blue" serif:id="Rridah Cup Blue" transform="matrix(1.37631,0,0,1.37631,-374.611,-628.962)">
            <path d="M1308.86,1375.7L1294.36,1375.7L1289.15,1351.85C1282.19,1349.06 1273.94,1347.66 1264.41,1347.66C1251.27,1347.66 1241.22,1352.83 1234.27,1363.15C1227.31,1373.47 1223.83,1387.91 1223.83,1406.47C1223.83,1425.16 1227.6,1439.04 1235.14,1448.11C1242.67,1457.17 1252.75,1461.71 1265.38,1461.71C1268.21,1461.71 1271.27,1461.36 1274.56,1460.66C1277.84,1459.96 1281.03,1458.95 1284.12,1457.63C1287.21,1456.3 1290.05,1454.91 1292.62,1453.44C1295.2,1451.98 1297.33,1450.55 1299,1449.15L1304.03,1444.97L1311.75,1458.57C1308.92,1461.64 1305.67,1464.5 1302,1467.15C1298.32,1469.8 1294.39,1472.14 1290.21,1474.16C1286.02,1476.18 1281.67,1477.75 1277.16,1478.87C1272.66,1479.98 1268.08,1480.54 1263.45,1480.54C1243.74,1480.54 1228.5,1474.37 1217.75,1462.02C1206.99,1449.68 1201.61,1431.65 1201.61,1407.93C1201.61,1396.07 1203.12,1385.33 1206.15,1375.7C1209.18,1366.08 1213.53,1357.88 1219.2,1351.12C1224.86,1344.35 1231.66,1339.12 1239.58,1335.42C1247.5,1331.73 1256.42,1329.88 1266.34,1329.88C1269.31,1329.88 1272.56,1330.12 1276.1,1330.61C1279.64,1331.1 1283.12,1331.76 1286.54,1332.6C1289.95,1333.44 1293.17,1334.31 1296.2,1335.21C1299.23,1336.12 1301.71,1336.99 1303.64,1337.83L1309.82,1340.34L1308.86,1375.7ZM1447.02,1348.71L1447.02,1418.81C1447.02,1439.32 1443.02,1454.73 1435.04,1465.06C1427.05,1475.38 1413.59,1480.54 1394.65,1480.54C1375.71,1480.54 1362.32,1475.76 1354.46,1466.21C1346.6,1456.65 1342.67,1441.9 1342.67,1421.95L1342.67,1348.71L1326.25,1344.53L1326.25,1333.02L1381.32,1331.97L1381.32,1344.53L1362.96,1348.71L1362.96,1421.95C1362.96,1437.3 1365.41,1447.93 1370.3,1453.86C1375.2,1459.79 1383.51,1462.76 1395.23,1462.76C1406.95,1462.76 1415.13,1459.51 1419.77,1453.03C1424.41,1446.54 1426.73,1435.13 1426.73,1418.81L1426.73,1348.71L1408.37,1344.53L1408.37,1333.02L1463.44,1331.97L1463.44,1344.53L1447.02,1348.71ZM468.294,1478.45L415.155,1478.45L415.155,1465.89L431.579,1461.71L431.579,1348.71L415.155,1344.53L415.155,1333.02L451.869,1331.97L473.124,1331.97C486.78,1331.97 497.44,1335.32 505.104,1342.02C512.769,1348.71 516.602,1357.92 516.602,1369.64C516.602,1390.14 508.228,1403.75 491.482,1410.44C494.573,1413.37 498.438,1419.65 503.075,1429.28L518.341,1462.55L532.06,1465.89L532.06,1478.45L503.075,1478.45L486.651,1439.74C482.142,1429.28 478.245,1422.47 474.96,1419.34C471.675,1416.2 466.877,1414.63 460.564,1414.63L451.869,1414.63L451.869,1461.71L468.294,1465.89L468.294,1478.45ZM593.895,1478.45L540.756,1478.45L540.756,1465.89L557.181,1461.71L557.181,1348.71L540.756,1344.53L540.756,1333.02L577.47,1331.97L598.726,1331.97C612.381,1331.97 623.041,1335.32 630.706,1342.02C638.371,1348.71 642.203,1357.92 642.203,1369.64C642.203,1390.14 633.83,1403.75 617.083,1410.44C620.174,1413.37 624.039,1419.65 628.677,1429.28L643.942,1462.55L657.662,1465.89L657.662,1478.45L628.677,1478.45L612.252,1439.74C607.743,1429.28 603.846,1422.47 600.561,1419.34C597.276,1416.2 592.478,1414.63 586.166,1414.63L577.47,1414.63L577.47,1461.71L593.895,1465.89L593.895,1478.45ZM719.496,1478.45L666.357,1478.45L666.357,1465.89L682.782,1461.71L682.782,1348.71L666.357,1344.53L666.357,1333.02L719.496,1331.97L719.496,1344.53L703.071,1348.71L703.071,1461.71L719.496,1465.89L719.496,1478.45ZM796.789,1478.45L738.819,1478.45L738.819,1465.89L755.244,1461.71L755.244,1348.71L738.819,1344.53L738.819,1333.02L775.534,1331.97L799.688,1331.97C809.22,1331.97 817.755,1333.54 825.291,1336.68C832.827,1339.82 839.204,1344.42 844.421,1350.49C849.638,1356.56 853.632,1364.02 856.401,1372.88C859.171,1381.74 860.556,1391.89 860.556,1403.33C860.556,1414.77 859.042,1425.09 856.015,1434.3C852.988,1443.5 848.704,1451.39 843.165,1457.94C837.626,1464.5 830.927,1469.56 823.069,1473.11C815.211,1476.67 806.451,1478.45 796.789,1478.45ZM912.729,1478.45L859.59,1478.45L859.59,1465.89L875.435,1461.92L919.492,1333.02L938.815,1331.97L981.713,1461.92L997.751,1465.89L997.751,1478.45L941.714,1478.45L941.714,1465.89L959.684,1461.92L952.341,1438.69L902.101,1438.69L894.565,1461.92L912.729,1465.89L912.729,1478.45ZM1058.62,1478.45L1003.55,1478.45L1003.55,1465.89L1019.97,1461.71L1019.97,1348.71L1003.55,1344.53L1003.55,1333.02L1058.62,1331.97L1058.62,1344.53L1040.26,1348.71L1040.26,1394.75L1105,1394.75L1105,1348.71L1086.64,1344.53L1086.64,1333.02L1141.71,1331.97L1141.71,1344.53L1125.29,1348.71L1125.29,1461.71L1141.71,1465.89L1141.71,1478.45L1086.64,1478.45L1086.64,1465.89L1105,1461.71L1105,1411.49L1040.26,1411.49L1040.26,1461.71L1058.62,1465.89L1058.62,1478.45ZM1532.04,1478.45L1478.9,1478.45L1478.9,1465.89L1495.33,1461.71L1495.33,1348.71L1478.9,1344.53L1478.9,1333.02L1515.62,1331.97L1535.9,1331.97C1550.2,1331.97 1561.18,1335.81 1568.85,1343.48C1576.52,1351.15 1580.35,1361.62 1580.35,1374.87C1580.35,1390.91 1575.81,1403.12 1566.73,1411.49C1557.64,1419.86 1544.79,1424.04 1528.17,1424.04L1515.62,1424.04L1515.62,1461.71L1532.04,1465.89L1532.04,1478.45ZM775.534,1461.71L797.755,1461.71C810.509,1461.71 820.46,1456.97 827.61,1447.48C834.759,1437.99 838.334,1423.69 838.334,1404.58C838.334,1385.33 834.856,1371.21 827.9,1362.21C820.943,1353.21 811.217,1348.71 798.721,1348.71L775.534,1348.71L775.534,1461.71ZM927.608,1358.96L907.318,1421.95L947.124,1421.95L927.608,1358.96ZM1534.94,1348.71L1515.62,1348.71L1515.62,1407.3L1528.17,1407.3C1549.43,1407.3 1560.06,1397.54 1560.06,1378.01C1560.06,1369.36 1557.87,1362.31 1553.49,1356.87C1549.11,1351.43 1542.92,1348.71 1534.94,1348.71ZM451.869,1348.71L451.869,1398.93L466.361,1398.93C475.765,1398.93 483.108,1396.63 488.39,1392.03C493.671,1387.42 496.312,1381.36 496.312,1373.82C496.312,1366.15 494.058,1360.05 489.549,1355.51C485.04,1350.98 479.243,1348.71 472.158,1348.71L451.869,1348.71ZM577.47,1348.71L577.47,1398.93L591.962,1398.93C601.366,1398.93 608.709,1396.63 613.991,1392.03C619.273,1387.42 621.914,1381.36 621.914,1373.82C621.914,1366.15 619.659,1360.05 615.15,1355.51C610.642,1350.98 604.845,1348.71 597.759,1348.71L577.47,1348.71Z" style="fill:rgb(18,78,145);"/>
        </g>
        <g id="Irish-Flag" serif:id="Irish Flag" transform="matrix(1.1685,0,0,1.1685,-166.805,-167.441)">
            <path id="White-Background1" serif:id="White Background" d="M1024.83,246.374C1269.28,299.021 1461.38,408.132 1612.08,561.88C1635.67,752.034 1626.86,925 1586.43,1078.92C1585.42,1082.77 1584.38,1086.61 1583.33,1090.43L1024.83,1090.43L1024.83,246.374Z" style="fill:white;"/>
            <path id="Green-Stripe" serif:id="Green Stripe" d="M1024.89,246.388C1095.94,261.693 1162.57,281.769 1225.05,306.325C1237.31,562.465 1234.44,829.014 1220.09,1090.43L1024.83,1090.43L1024.83,1085.11C1024.95,1024.15 1026.01,485.745 1024.89,246.388Z" style="fill:rgb(1,159,98);"/>
            <path id="Gold-Stripe" serif:id="Gold Stripe" d="M1425.89,409.269C1494.07,453.539 1555.95,504.613 1612.08,561.88C1635.67,752.034 1626.86,925 1586.43,1078.92C1585.42,1082.77 1584.38,1086.6 1583.33,1090.43L1420.76,1090.43C1436.86,864.726 1440.76,637.877 1425.89,409.269Z" style="fill:rgb(238,155,0);"/>
        </g>
        <g id="Scottish-Flag" serif:id="Scottish Flag" transform="matrix(1.1685,0,0,1.1685,-166.805,-167.441)">
            <path id="White-Background2" serif:id="White Background" d="M975.173,246.613L975.173,1090.43L418.347,1090.43C417.084,1086.6 415.834,1082.76 414.599,1078.92C369.27,910.719 364.743,731.93 391.425,558.776C547.565,399.689 743.005,296.862 975.173,246.613Z" style="fill:white;"/>
            <path id="Blue-Background" serif:id="Blue Background" d="M464.825,1090.43C518.57,992.221 575.156,895.498 634.211,800.069C731.49,894.217 825.89,990.845 916.855,1090.43L464.825,1090.43ZM389.291,573.098C448.831,626.063 507.541,679.744 565.307,734.238C507.531,825.464 451.905,917.841 398.704,1011.52C369.574,868.128 368.331,718.783 389.291,573.098ZM975.173,295.847L975.173,1006.14C883.234,908.263 782.071,812.989 684.369,720.24C776.269,576.138 873.641,434.903 975.173,295.847ZM883.503,269.748C790.456,396.418 700.905,524.96 615.678,655.82C560.644,604.825 504.81,554.533 448.253,504.876C571.894,395.805 717.336,317.942 883.503,269.748Z" style="fill:rgb(18,78,145);"/>
        </g>
    </g>
</svg>
